<svg xmlns="http://www.w3.org/2000/svg" xmlns:xlink="http://www.w3.org/1999/xlink" width="229" zoomAndPan="magnify" viewBox="0 0 171.75 30.000001" height="40" preserveAspectRatio="xMidYMid meet" version="1.0">
  <defs>
    <g />
    <clipPath id="e53dad6723">
      <path d="M 8.59375 10 L 28 10 L 28 26.855469 L 8.59375 26.855469 Z M 8.59375 10 " clip-rule="nonzero" />
    </clipPath>
    <clipPath id="282d3eb996">
      <path d="M 9 2.902344 L 30 2.902344 L 30 22 L 9 22 Z M 9 2.902344 " clip-rule="nonzero" />
    </clipPath>
  </defs>
  <path fill="#e52323" d="M 30.683594 9.101562 C 31.210938 10.167969 31.234375 10.207031 31.460938 10.859375 C 31.8125 12.015625 31.824219 12.0625 31.941406 12.742188 C 31.996094 13.160156 32.0625 13.71875 32.089844 14.136719 C 32.070312 15.957031 31.542969 18.175781 27.785156 20.8125 C 26.160156 21.949219 22.945312 23.644531 16.824219 25.238281 C 15.976562 25.457031 15.972656 25.460938 15.824219 25.554688 C 15.832031 25.558594 15.839844 25.566406 15.847656 25.574219 C 15.078125 25.226562 15.015625 25.199219 14.546875 24.933594 C 13.949219 24.597656 13.394531 24.191406 12.890625 23.722656 C 13.074219 23.5625 13.359375 23.457031 14.6875 23.050781 C 31.210938 18.007812 32.488281 12.644531 30.648438 9.035156 L 30.683594 9.101562 " fill-opacity="1" fill-rule="nonzero" />
  <path fill="#e52323" d="M 16.402344 3.628906 C 17.007812 3.429688 17.632812 3.222656 18.777344 3.050781 L 19.074219 3.015625 C 19.039062 3.023438 18.988281 3.035156 18.96875 3.0625 C 19.007812 3.101562 19.117188 3.207031 20.367188 3.414062 C 19.339844 3.386719 19.097656 3.382812 17.949219 3.546875 C 16.488281 3.597656 16.488281 3.597656 16.402344 3.628906 " fill-opacity="1" fill-rule="nonzero" />
  <path fill="#084c7e" d="M 27.144531 5.117188 C 26.847656 4.921875 26.453125 4.660156 26.144531 4.480469 C 25.390625 4.078125 25.292969 4.027344 24.636719 3.757812 C 23.984375 3.519531 23.960938 3.511719 23.554688 3.394531 C 23.019531 3.25 23.019531 3.25 22.734375 3.191406 C 22.289062 3.105469 22.289062 3.105469 22.0625 3.074219 C 21.894531 3.050781 21.667969 3.023438 21.5 3.003906 C 23.511719 3.25 25.414062 3.960938 27.144531 5.117188 " fill-opacity="1" fill-rule="nonzero" />
  <path fill="#084c7e" d="M 28.257812 23.402344 C 29.050781 22.628906 29.097656 22.582031 29.53125 22.042969 C 30.214844 21.125 30.253906 21.070312 30.605469 20.453125 C 31.148438 19.390625 31.160156 19.371094 31.378906 18.777344 C 31.683594 17.792969 32.605469 14.796875 28.136719 11.289062 C 25.15625 8.949219 21.046875 7.070312 15.917969 5.703125 C 14.507812 5.328125 14.121094 5.207031 13.863281 5.03125 C 13.855469 4.996094 13.851562 4.949219 13.847656 4.914062 C 13.855469 4.90625 13.871094 4.894531 13.882812 4.886719 C 13.066406 5.460938 12.964844 5.535156 12.402344 6.039062 C 11.597656 6.832031 11.582031 6.847656 11.207031 7.3125 C 11.199219 7.367188 11.191406 7.441406 11.183594 7.496094 C 11.429688 7.78125 11.867188 7.976562 14.316406 8.726562 C 24.964844 11.988281 33.871094 17.972656 28.257812 23.402344 " fill-opacity="1" fill-rule="nonzero" />
  <g clip-path="url(#e53dad6723)">
    <path fill="#084c7e" d="M 20.324219 26 C 21.726562 27.136719 28.289062 25.082031 27.839844 21.542969 C 27.65625 20.113281 26.03125 16.382812 14.949219 12.628906 C 10.359375 11.070312 9.382812 10.691406 9.484375 10.199219 L 9.246094 10.820312 C 8.890625 11.976562 8.875 12.019531 8.757812 12.703125 C 8.699219 13.128906 8.628906 13.691406 8.601562 14.117188 C 8.714844 14.703125 9.613281 15.066406 13.125 16.195312 C 31.628906 22.152344 23.828125 26.441406 20.324219 26 " fill-opacity="1" fill-rule="nonzero" />
  </g>
  <g clip-path="url(#282d3eb996)">
    <path fill="#e52323" d="M 21.5 3.003906 C 21.667969 3.023438 21.894531 3.050781 22.0625 3.074219 C 22.488281 3.140625 22.503906 3.144531 22.734375 3.191406 C 23.238281 3.304688 23.265625 3.3125 23.554688 3.394531 C 24.167969 3.582031 24.230469 3.601562 24.636719 3.757812 C 25.355469 4.0625 25.503906 4.128906 26.144531 4.480469 C 26.449219 4.664062 26.851562 4.914062 27.144531 5.117188 C 31.523438 8.414062 29.054688 11.671875 27.789062 12.917969 C 27 13.695312 25.683594 14.992188 21.324219 17.105469 C 17.972656 18.734375 14.3125 19.550781 10.929688 21.101562 C 10.347656 19.953125 9.96875 18.652344 9.839844 17.238281 C 13.167969 15.929688 16.609375 14.914062 19.871094 13.417969 C 22.53125 12.195312 24.398438 10.914062 25.1875 10.191406 C 28.410156 7.234375 26.789062 4.9375 24.417969 3.867188 C 22.976562 3.21875 21.195312 3.015625 20.367188 3.414062 C 20.308594 3.347656 20.265625 3.230469 20.253906 3.144531 C 20.332031 3.078125 20.53125 2.902344 21.5 3.003906 " fill-opacity="1" fill-rule="nonzero" />
  </g>
  <path fill="#084c7e" d="M 32.089844 14.136719 C 32.054688 13.71875 32.003906 13.160156 31.941406 12.742188 C 31.6875 11.53125 31.683594 11.507812 31.460938 10.859375 C 31.027344 9.75 31.011719 9.707031 30.683594 9.101562 L 30.648438 9.035156 C 27.671875 4.226562 19.722656 2.988281 19.074219 3.015625 L 18.777344 3.050781 C 17.933594 3.183594 17.390625 3.296875 16.402344 3.628906 C 16.597656 3.722656 16.597656 3.722656 17.3125 3.875 C 18.738281 4.175781 23.707031 5.375 27.824219 8.132812 C 31.75 10.761719 31.996094 13.214844 32.089844 14.136719 " fill-opacity="1" fill-rule="nonzero" />
  <g fill="#084c7e" fill-opacity="1">
    <g transform="translate(35.1484, 18.871493)">
      <g>
        <path d="M 0.96875 0 L 0.96875 -10.015625 L 2.8125 -10.015625 L 2.8125 -5.859375 L 7.296875 -5.859375 L 7.296875 -10.015625 L 9.125 -10.015625 L 9.125 0 L 7.296875 0 L 7.296875 -4.359375 L 2.8125 -4.359375 L 2.8125 0 Z M 0.96875 0 " />
      </g>
    </g>
  </g>
  <g fill="#084c7e" fill-opacity="1">
    <g transform="translate(44.536563, 18.871493)">
      <g>
        <path d="M 0.96875 0 L 0.96875 -10.015625 L 2.8125 -10.015625 L 2.8125 -5.859375 L 7.296875 -5.859375 L 7.296875 -10.015625 L 9.125 -10.015625 L 9.125 0 L 7.296875 0 L 7.296875 -4.359375 L 2.8125 -4.359375 L 2.8125 0 Z M 0.96875 0 " />
      </g>
    </g>
  </g>
  <g fill="#084c7e" fill-opacity="1">
    <g transform="translate(53.924725, 18.871493)">
      <g>
        <path d="M 0.96875 0 L 0.96875 -10.015625 L 7.4375 -10.015625 L 7.4375 -8.546875 L 2.8125 -8.546875 L 2.8125 -5.734375 L 6.5625 -5.734375 L 6.5625 -4.296875 L 2.8125 -4.296875 L 2.8125 0 Z M 0.96875 0 " />
      </g>
    </g>
  </g>
  <g fill="#000000" fill-opacity="1">
    <g transform="translate(61.095981, 18.871493)">
      <g />
    </g>
  </g>
  <g fill="#e52323" fill-opacity="1">
    <g transform="translate(63.795074, 18.871493)">
      <g>
        <path d="M 4.09375 0 C 3.351562 0 2.753906 -0.179688 2.296875 -0.546875 C 1.847656 -0.910156 1.625 -1.550781 1.625 -2.46875 L 1.625 -5.5625 L 0.421875 -5.5625 L 0.421875 -7.09375 L 1.625 -7.09375 L 1.84375 -9 L 3.46875 -9 L 3.46875 -7.09375 L 5.375 -7.09375 L 5.375 -5.5625 L 3.46875 -5.5625 L 3.46875 -2.46875 C 3.46875 -2.125 3.539062 -1.882812 3.6875 -1.75 C 3.832031 -1.625 4.085938 -1.5625 4.453125 -1.5625 L 5.34375 -1.5625 L 5.34375 0 Z M 4.09375 0 " />
      </g>
    </g>
  </g>
  <g fill="#e52323" fill-opacity="1">
    <g transform="translate(69.104329, 18.871493)">
      <g>
        <path d="M 4.375 0.171875 C 3.664062 0.171875 3.03125 0.0195312 2.46875 -0.28125 C 1.914062 -0.59375 1.484375 -1.023438 1.171875 -1.578125 C 0.859375 -2.128906 0.703125 -2.769531 0.703125 -3.5 C 0.703125 -4.226562 0.851562 -4.878906 1.15625 -5.453125 C 1.46875 -6.023438 1.898438 -6.46875 2.453125 -6.78125 C 3.003906 -7.101562 3.648438 -7.265625 4.390625 -7.265625 C 5.085938 -7.265625 5.703125 -7.113281 6.234375 -6.8125 C 6.773438 -6.507812 7.191406 -6.09375 7.484375 -5.5625 C 7.785156 -5.03125 7.9375 -4.441406 7.9375 -3.796875 C 7.9375 -3.691406 7.929688 -3.582031 7.921875 -3.46875 C 7.921875 -3.351562 7.921875 -3.234375 7.921875 -3.109375 L 2.515625 -3.109375 C 2.554688 -2.554688 2.75 -2.117188 3.09375 -1.796875 C 3.445312 -1.484375 3.867188 -1.328125 4.359375 -1.328125 C 4.734375 -1.328125 5.046875 -1.410156 5.296875 -1.578125 C 5.554688 -1.742188 5.75 -1.960938 5.875 -2.234375 L 7.734375 -2.234375 C 7.597656 -1.785156 7.375 -1.375 7.0625 -1 C 6.75 -0.632812 6.363281 -0.347656 5.90625 -0.140625 C 5.457031 0.0664062 4.945312 0.171875 4.375 0.171875 Z M 4.390625 -5.78125 C 3.941406 -5.78125 3.546875 -5.65625 3.203125 -5.40625 C 2.859375 -5.15625 2.640625 -4.769531 2.546875 -4.25 L 6.078125 -4.25 C 6.054688 -4.71875 5.882812 -5.085938 5.5625 -5.359375 C 5.25 -5.640625 4.859375 -5.78125 4.390625 -5.78125 Z M 4.390625 -5.78125 " />
      </g>
    </g>
  </g>
  <g fill="#e52323" fill-opacity="1">
    <g transform="translate(76.946797, 18.871493)">
      <g>
        <path d="M 4.40625 0.171875 C 3.6875 0.171875 3.046875 0.015625 2.484375 -0.296875 C 1.929688 -0.609375 1.492188 -1.046875 1.171875 -1.609375 C 0.859375 -2.179688 0.703125 -2.828125 0.703125 -3.546875 C 0.703125 -4.273438 0.859375 -4.921875 1.171875 -5.484375 C 1.492188 -6.046875 1.929688 -6.484375 2.484375 -6.796875 C 3.046875 -7.109375 3.6875 -7.265625 4.40625 -7.265625 C 5.3125 -7.265625 6.070312 -7.03125 6.6875 -6.5625 C 7.3125 -6.09375 7.710938 -5.441406 7.890625 -4.609375 L 5.953125 -4.609375 C 5.859375 -4.953125 5.671875 -5.21875 5.390625 -5.40625 C 5.109375 -5.601562 4.773438 -5.703125 4.390625 -5.703125 C 3.890625 -5.703125 3.460938 -5.507812 3.109375 -5.125 C 2.753906 -4.75 2.578125 -4.222656 2.578125 -3.546875 C 2.578125 -2.867188 2.753906 -2.335938 3.109375 -1.953125 C 3.460938 -1.578125 3.890625 -1.390625 4.390625 -1.390625 C 4.773438 -1.390625 5.109375 -1.484375 5.390625 -1.671875 C 5.671875 -1.859375 5.859375 -2.128906 5.953125 -2.484375 L 7.890625 -2.484375 C 7.710938 -1.679688 7.3125 -1.035156 6.6875 -0.546875 C 6.070312 -0.0664062 5.3125 0.171875 4.40625 0.171875 Z M 4.40625 0.171875 " />
      </g>
    </g>
  </g>
  <g fill="#e52323" fill-opacity="1">
    <g transform="translate(84.817893, 18.871493)">
      <g>
        <path d="M 0.9375 0 L 0.9375 -10.3125 L 2.765625 -10.3125 L 2.765625 -6.015625 C 3.003906 -6.398438 3.328125 -6.703125 3.734375 -6.921875 C 4.140625 -7.148438 4.601562 -7.265625 5.125 -7.265625 C 6 -7.265625 6.675781 -6.988281 7.15625 -6.4375 C 7.644531 -5.882812 7.890625 -5.070312 7.890625 -4 L 7.890625 0 L 6.0625 0 L 6.0625 -3.828125 C 6.0625 -4.441406 5.941406 -4.910156 5.703125 -5.234375 C 5.460938 -5.554688 5.078125 -5.71875 4.546875 -5.71875 C 4.035156 -5.71875 3.609375 -5.535156 3.265625 -5.171875 C 2.929688 -4.816406 2.765625 -4.3125 2.765625 -3.65625 L 2.765625 0 Z M 0.9375 0 " />
      </g>
    </g>
  </g>
  <g fill="#e52323" fill-opacity="1">
    <g transform="translate(92.803482, 18.871493)">
      <g>
        <path d="M 0.765625 -3.375 L 0.765625 -4.90625 L 6.765625 -4.90625 L 6.765625 -3.375 Z M 0.765625 -3.375 " />
      </g>
    </g>
  </g>
  <g fill="#e52323" fill-opacity="1">
    <g transform="translate(99.629801, 18.871493)">
      <g>
        <path d="M 4.09375 0 C 3.351562 0 2.753906 -0.179688 2.296875 -0.546875 C 1.847656 -0.910156 1.625 -1.550781 1.625 -2.46875 L 1.625 -5.5625 L 0.421875 -5.5625 L 0.421875 -7.09375 L 1.625 -7.09375 L 1.84375 -9 L 3.46875 -9 L 3.46875 -7.09375 L 5.375 -7.09375 L 5.375 -5.5625 L 3.46875 -5.5625 L 3.46875 -2.46875 C 3.46875 -2.125 3.539062 -1.882812 3.6875 -1.75 C 3.832031 -1.625 4.085938 -1.5625 4.453125 -1.5625 L 5.34375 -1.5625 L 5.34375 0 Z M 4.09375 0 " />
      </g>
    </g>
  </g>
  <g fill="#e52323" fill-opacity="1">
    <g transform="translate(104.939058, 18.871493)">
      <g>
        <path d="M 1.921875 -8.203125 C 1.585938 -8.203125 1.3125 -8.300781 1.09375 -8.5 C 0.875 -8.695312 0.765625 -8.953125 0.765625 -9.265625 C 0.765625 -9.566406 0.875 -9.816406 1.09375 -10.015625 C 1.3125 -10.210938 1.585938 -10.3125 1.921875 -10.3125 C 2.253906 -10.3125 2.523438 -10.210938 2.734375 -10.015625 C 2.953125 -9.816406 3.0625 -9.566406 3.0625 -9.265625 C 3.0625 -8.953125 2.953125 -8.695312 2.734375 -8.5 C 2.523438 -8.300781 2.253906 -8.203125 1.921875 -8.203125 Z M 1 0 L 1 -7.09375 L 2.828125 -7.09375 L 2.828125 0 Z M 1 0 " />
      </g>
    </g>
  </g>
  <g fill="#e52323" fill-opacity="1">
    <g transform="translate(108.044282, 18.871493)">
      <g>
        <path d="M 0.9375 3.15625 L 0.9375 -7.09375 L 2.5625 -7.09375 L 2.765625 -6.078125 C 2.992188 -6.398438 3.296875 -6.675781 3.671875 -6.90625 C 4.046875 -7.144531 4.535156 -7.265625 5.140625 -7.265625 C 5.804688 -7.265625 6.398438 -7.101562 6.921875 -6.78125 C 7.453125 -6.457031 7.867188 -6.015625 8.171875 -5.453125 C 8.472656 -4.890625 8.625 -4.25 8.625 -3.53125 C 8.625 -2.820312 8.472656 -2.1875 8.171875 -1.625 C 7.867188 -1.0625 7.453125 -0.617188 6.921875 -0.296875 C 6.398438 0.015625 5.804688 0.171875 5.140625 0.171875 C 4.609375 0.171875 4.140625 0.0703125 3.734375 -0.125 C 3.335938 -0.320312 3.015625 -0.601562 2.765625 -0.96875 L 2.765625 3.15625 Z M 4.75 -1.4375 C 5.332031 -1.4375 5.8125 -1.628906 6.1875 -2.015625 C 6.570312 -2.410156 6.765625 -2.914062 6.765625 -3.53125 C 6.765625 -4.15625 6.570312 -4.664062 6.1875 -5.0625 C 5.8125 -5.46875 5.332031 -5.671875 4.75 -5.671875 C 4.15625 -5.671875 3.671875 -5.472656 3.296875 -5.078125 C 2.921875 -4.679688 2.734375 -4.171875 2.734375 -3.546875 C 2.734375 -2.929688 2.921875 -2.425781 3.296875 -2.03125 C 3.671875 -1.632812 4.15625 -1.4375 4.75 -1.4375 Z M 4.75 -1.4375 " />
      </g>
    </g>
  </g>
  <g fill="#e52323" fill-opacity="1">
    <g transform="translate(116.65959, 18.871493)">
      <g>
        <path d="M 3.859375 0.171875 C 3.234375 0.171875 2.679688 0.0703125 2.203125 -0.125 C 1.722656 -0.332031 1.335938 -0.617188 1.046875 -0.984375 C 0.765625 -1.347656 0.597656 -1.769531 0.546875 -2.25 L 2.390625 -2.25 C 2.441406 -1.96875 2.59375 -1.726562 2.84375 -1.53125 C 3.101562 -1.34375 3.429688 -1.25 3.828125 -1.25 C 4.234375 -1.25 4.53125 -1.328125 4.71875 -1.484375 C 4.90625 -1.648438 5 -1.835938 5 -2.046875 C 5 -2.347656 4.863281 -2.550781 4.59375 -2.65625 C 4.320312 -2.769531 3.953125 -2.878906 3.484375 -2.984375 C 3.171875 -3.054688 2.859375 -3.140625 2.546875 -3.234375 C 2.234375 -3.328125 1.941406 -3.445312 1.671875 -3.59375 C 1.410156 -3.75 1.195312 -3.941406 1.03125 -4.171875 C 0.875 -4.398438 0.796875 -4.6875 0.796875 -5.03125 C 0.796875 -5.664062 1.046875 -6.195312 1.546875 -6.625 C 2.046875 -7.050781 2.75 -7.265625 3.65625 -7.265625 C 4.5 -7.265625 5.171875 -7.066406 5.671875 -6.671875 C 6.171875 -6.285156 6.46875 -5.75 6.5625 -5.0625 L 4.84375 -5.0625 C 4.738281 -5.59375 4.34375 -5.859375 3.65625 -5.859375 C 3.3125 -5.859375 3.046875 -5.789062 2.859375 -5.65625 C 2.671875 -5.519531 2.578125 -5.351562 2.578125 -5.15625 C 2.578125 -4.945312 2.710938 -4.78125 2.984375 -4.65625 C 3.265625 -4.53125 3.632812 -4.414062 4.09375 -4.3125 C 4.59375 -4.195312 5.046875 -4.066406 5.453125 -3.921875 C 5.867188 -3.785156 6.203125 -3.582031 6.453125 -3.3125 C 6.703125 -3.039062 6.828125 -2.648438 6.828125 -2.140625 C 6.835938 -1.703125 6.722656 -1.304688 6.484375 -0.953125 C 6.242188 -0.597656 5.898438 -0.320312 5.453125 -0.125 C 5.003906 0.0703125 4.472656 0.171875 3.859375 0.171875 Z M 3.859375 0.171875 " />
      </g>
    </g>
  </g>
  <g fill="#000000" fill-opacity="1">
    <g transform="translate(123.458632, 18.871493)">
      <g />
    </g>
  </g>
  <g fill="#084c7e" fill-opacity="1">
    <g transform="translate(126.157724, 18.871493)">
      <g>
        <path d="M 0.96875 0 L 0.96875 -10.015625 L 5 -10.015625 C 6.039062 -10.015625 6.832031 -9.773438 7.375 -9.296875 C 7.925781 -8.816406 8.203125 -8.195312 8.203125 -7.4375 C 8.203125 -6.8125 8.03125 -6.3125 7.6875 -5.9375 C 7.351562 -5.5625 6.941406 -5.304688 6.453125 -5.171875 C 7.023438 -5.054688 7.5 -4.769531 7.875 -4.3125 C 8.25 -3.863281 8.4375 -3.335938 8.4375 -2.734375 C 8.4375 -1.941406 8.148438 -1.285156 7.578125 -0.765625 C 7.003906 -0.253906 6.191406 0 5.140625 0 Z M 2.8125 -5.8125 L 4.71875 -5.8125 C 5.238281 -5.8125 5.632812 -5.929688 5.90625 -6.171875 C 6.1875 -6.410156 6.328125 -6.75 6.328125 -7.1875 C 6.328125 -7.601562 6.191406 -7.929688 5.921875 -8.171875 C 5.648438 -8.421875 5.238281 -8.546875 4.6875 -8.546875 L 2.8125 -8.546875 Z M 2.8125 -1.484375 L 4.859375 -1.484375 C 5.398438 -1.484375 5.816406 -1.609375 6.109375 -1.859375 C 6.410156 -2.117188 6.5625 -2.476562 6.5625 -2.9375 C 6.5625 -3.40625 6.40625 -3.769531 6.09375 -4.03125 C 5.78125 -4.300781 5.359375 -4.4375 4.828125 -4.4375 L 2.8125 -4.4375 Z M 2.8125 -1.484375 " />
      </g>
    </g>
  </g>
  <g fill="#084c7e" fill-opacity="1">
    <g transform="translate(134.472482, 18.871493)">
      <g>
        <path d="M 4.34375 0.171875 C 3.65625 0.171875 3.035156 0.015625 2.484375 -0.296875 C 1.929688 -0.609375 1.492188 -1.046875 1.171875 -1.609375 C 0.859375 -2.171875 0.703125 -2.816406 0.703125 -3.546875 C 0.703125 -4.285156 0.863281 -4.929688 1.1875 -5.484375 C 1.507812 -6.046875 1.945312 -6.484375 2.5 -6.796875 C 3.050781 -7.109375 3.664062 -7.265625 4.34375 -7.265625 C 5.03125 -7.265625 5.644531 -7.109375 6.1875 -6.796875 C 6.738281 -6.484375 7.171875 -6.046875 7.484375 -5.484375 C 7.804688 -4.929688 7.96875 -4.285156 7.96875 -3.546875 C 7.96875 -2.816406 7.804688 -2.171875 7.484375 -1.609375 C 7.171875 -1.046875 6.738281 -0.609375 6.1875 -0.296875 C 5.632812 0.015625 5.019531 0.171875 4.34375 0.171875 Z M 4.34375 -1.421875 C 4.8125 -1.421875 5.222656 -1.597656 5.578125 -1.953125 C 5.929688 -2.304688 6.109375 -2.835938 6.109375 -3.546875 C 6.109375 -4.253906 5.929688 -4.785156 5.578125 -5.140625 C 5.222656 -5.503906 4.8125 -5.6875 4.34375 -5.6875 C 3.863281 -5.6875 3.445312 -5.503906 3.09375 -5.140625 C 2.75 -4.785156 2.578125 -4.253906 2.578125 -3.546875 C 2.578125 -2.835938 2.75 -2.304688 3.09375 -1.953125 C 3.445312 -1.597656 3.863281 -1.421875 4.34375 -1.421875 Z M 4.34375 -1.421875 " />
      </g>
    </g>
  </g>
  <g fill="#084c7e" fill-opacity="1">
    <g transform="translate(142.429442, 18.871493)">
      <g>
        <path d="M 4.34375 0.171875 C 3.65625 0.171875 3.035156 0.015625 2.484375 -0.296875 C 1.929688 -0.609375 1.492188 -1.046875 1.171875 -1.609375 C 0.859375 -2.171875 0.703125 -2.816406 0.703125 -3.546875 C 0.703125 -4.285156 0.863281 -4.929688 1.1875 -5.484375 C 1.507812 -6.046875 1.945312 -6.484375 2.5 -6.796875 C 3.050781 -7.109375 3.664062 -7.265625 4.34375 -7.265625 C 5.03125 -7.265625 5.644531 -7.109375 6.1875 -6.796875 C 6.738281 -6.484375 7.171875 -6.046875 7.484375 -5.484375 C 7.804688 -4.929688 7.96875 -4.285156 7.96875 -3.546875 C 7.96875 -2.816406 7.804688 -2.171875 7.484375 -1.609375 C 7.171875 -1.046875 6.738281 -0.609375 6.1875 -0.296875 C 5.632812 0.015625 5.019531 0.171875 4.34375 0.171875 Z M 4.34375 -1.421875 C 4.8125 -1.421875 5.222656 -1.597656 5.578125 -1.953125 C 5.929688 -2.304688 6.109375 -2.835938 6.109375 -3.546875 C 6.109375 -4.253906 5.929688 -4.785156 5.578125 -5.140625 C 5.222656 -5.503906 4.8125 -5.6875 4.34375 -5.6875 C 3.863281 -5.6875 3.445312 -5.503906 3.09375 -5.140625 C 2.75 -4.785156 2.578125 -4.253906 2.578125 -3.546875 C 2.578125 -2.835938 2.75 -2.304688 3.09375 -1.953125 C 3.445312 -1.597656 3.863281 -1.421875 4.34375 -1.421875 Z M 4.34375 -1.421875 " />
      </g>
    </g>
  </g>
  <g fill="#084c7e" fill-opacity="1">
    <g transform="translate(150.386404, 18.871493)">
      <g>
        <path d="M 0.9375 0 L 0.9375 -10.3125 L 2.765625 -10.3125 L 2.765625 -4.21875 L 5.28125 -7.09375 L 7.453125 -7.09375 L 4.546875 -3.859375 L 7.921875 0 L 5.640625 0 L 2.765625 -3.5625 L 2.765625 0 Z M 0.9375 0 " />
      </g>
    </g>
  </g>
  <g fill="#084c7e" fill-opacity="1">
    <g transform="translate(157.799517, 18.871493)">
      <g>
        <path d="M 3.859375 0.171875 C 3.234375 0.171875 2.679688 0.0703125 2.203125 -0.125 C 1.722656 -0.332031 1.335938 -0.617188 1.046875 -0.984375 C 0.765625 -1.347656 0.597656 -1.769531 0.546875 -2.25 L 2.390625 -2.25 C 2.441406 -1.96875 2.59375 -1.726562 2.84375 -1.53125 C 3.101562 -1.34375 3.429688 -1.25 3.828125 -1.25 C 4.234375 -1.25 4.53125 -1.328125 4.71875 -1.484375 C 4.90625 -1.648438 5 -1.835938 5 -2.046875 C 5 -2.347656 4.863281 -2.550781 4.59375 -2.65625 C 4.320312 -2.769531 3.953125 -2.878906 3.484375 -2.984375 C 3.171875 -3.054688 2.859375 -3.140625 2.546875 -3.234375 C 2.234375 -3.328125 1.941406 -3.445312 1.671875 -3.59375 C 1.410156 -3.75 1.195312 -3.941406 1.03125 -4.171875 C 0.875 -4.398438 0.796875 -4.6875 0.796875 -5.03125 C 0.796875 -5.664062 1.046875 -6.195312 1.546875 -6.625 C 2.046875 -7.050781 2.75 -7.265625 3.65625 -7.265625 C 4.5 -7.265625 5.171875 -7.066406 5.671875 -6.671875 C 6.171875 -6.285156 6.46875 -5.75 6.5625 -5.0625 L 4.84375 -5.0625 C 4.738281 -5.59375 4.34375 -5.859375 3.65625 -5.859375 C 3.3125 -5.859375 3.046875 -5.789062 2.859375 -5.65625 C 2.671875 -5.519531 2.578125 -5.351562 2.578125 -5.15625 C 2.578125 -4.945312 2.710938 -4.78125 2.984375 -4.65625 C 3.265625 -4.53125 3.632812 -4.414062 4.09375 -4.3125 C 4.59375 -4.195312 5.046875 -4.066406 5.453125 -3.921875 C 5.867188 -3.785156 6.203125 -3.582031 6.453125 -3.3125 C 6.703125 -3.039062 6.828125 -2.648438 6.828125 -2.140625 C 6.835938 -1.703125 6.722656 -1.304688 6.484375 -0.953125 C 6.242188 -0.597656 5.898438 -0.320312 5.453125 -0.125 C 5.003906 0.0703125 4.472656 0.171875 3.859375 0.171875 Z M 3.859375 0.171875 " />
      </g>
    </g>
  </g>
</svg>