<svg xmlns="http://www.w3.org/2000/svg" xmlns:xlink="http://www.w3.org/1999/xlink" width="229" zoomAndPan="magnify" viewBox="0 0 171.75 30.000001" height="40" preserveAspectRatio="xMidYMid meet" version="1.0"><defs><g/><clipPath id="7497a54ac8"><path d="M 2.648438 8 L 26 8 L 26 29 L 2.648438 29 Z M 2.648438 8 " clip-rule="nonzero"/></clipPath><clipPath id="26ed191be9"><path d="M 161 11 L 168.859375 11 L 168.859375 19 L 161 19 Z M 161 11 " clip-rule="nonzero"/></clipPath></defs><path fill="#e52323" d="M 29.109375 7.425781 C 29.742188 8.699219 29.765625 8.75 30.039062 9.53125 C 30.457031 10.914062 30.476562 10.96875 30.617188 11.789062 C 30.679688 12.289062 30.761719 12.957031 30.796875 13.457031 C 30.769531 15.640625 30.136719 18.296875 25.636719 21.453125 C 23.691406 22.816406 19.835938 24.84375 12.503906 26.753906 C 11.492188 27.019531 11.484375 27.023438 11.308594 27.132812 C 11.316406 27.140625 11.328125 27.148438 11.335938 27.15625 C 10.414062 26.742188 10.339844 26.710938 9.777344 26.394531 C 9.0625 25.988281 8.398438 25.5 7.796875 24.9375 C 8.011719 24.75 8.355469 24.621094 9.945312 24.136719 C 29.738281 18.09375 31.269531 11.671875 29.066406 7.34375 L 29.109375 7.425781 " fill-opacity="1" fill-rule="nonzero"/><path fill="#e52323" d="M 12.003906 0.867188 C 12.726562 0.628906 13.472656 0.382812 14.84375 0.179688 L 15.203125 0.136719 C 15.160156 0.144531 15.101562 0.15625 15.074219 0.1875 C 15.121094 0.238281 15.25 0.367188 16.75 0.609375 C 15.519531 0.578125 15.230469 0.574219 13.855469 0.773438 C 12.101562 0.832031 12.101562 0.832031 12.003906 0.867188 " fill-opacity="1" fill-rule="nonzero"/><path fill="#084c7e" d="M 24.871094 2.652344 C 24.515625 2.417969 24.039062 2.105469 23.671875 1.886719 C 22.769531 1.410156 22.652344 1.347656 21.863281 1.023438 C 21.085938 0.738281 21.054688 0.726562 20.570312 0.585938 C 19.929688 0.417969 19.929688 0.417969 19.585938 0.347656 C 19.050781 0.242188 19.050781 0.242188 18.78125 0.203125 C 18.578125 0.175781 18.308594 0.144531 18.105469 0.121094 C 20.519531 0.417969 22.792969 1.269531 24.871094 2.652344 " fill-opacity="1" fill-rule="nonzero"/><path fill="#084c7e" d="M 26.203125 24.554688 C 27.152344 23.628906 27.210938 23.574219 27.730469 22.929688 C 28.546875 21.828125 28.59375 21.761719 29.015625 21.023438 C 29.667969 19.753906 29.679688 19.726562 29.941406 19.019531 C 30.304688 17.839844 31.410156 14.246094 26.058594 10.046875 C 22.488281 7.242188 17.5625 4.992188 11.421875 3.355469 C 9.730469 2.902344 9.265625 2.761719 8.957031 2.550781 C 8.953125 2.507812 8.945312 2.453125 8.9375 2.410156 C 8.953125 2.398438 8.96875 2.386719 8.980469 2.375 C 8.007812 3.066406 7.882812 3.15625 7.210938 3.757812 C 6.246094 4.707031 6.226562 4.726562 5.773438 5.28125 C 5.769531 5.347656 5.757812 5.433594 5.75 5.5 C 6.042969 5.84375 6.570312 6.078125 9.5 6.976562 C 22.257812 10.882812 32.925781 18.054688 26.203125 24.554688 " fill-opacity="1" fill-rule="nonzero"/><g clip-path="url(#7497a54ac8)"><path fill="#084c7e" d="M 16.699219 27.671875 C 18.378906 29.03125 26.242188 26.570312 25.699219 22.332031 C 25.480469 20.617188 23.535156 16.148438 10.261719 11.648438 C 4.757812 9.785156 3.589844 9.328125 3.710938 8.738281 L 3.425781 9.484375 C 3.003906 10.867188 2.984375 10.921875 2.839844 11.742188 C 2.773438 12.25 2.691406 12.925781 2.65625 13.433594 C 2.792969 14.136719 3.867188 14.570312 8.074219 15.925781 C 30.242188 23.058594 20.898438 28.199219 16.699219 27.671875 " fill-opacity="1" fill-rule="nonzero"/></g><path fill="#e52323" d="M 18.105469 0.121094 C 18.308594 0.144531 18.578125 0.175781 18.78125 0.203125 C 19.289062 0.285156 19.308594 0.289062 19.585938 0.347656 C 20.1875 0.480469 20.222656 0.488281 20.570312 0.585938 C 21.304688 0.8125 21.378906 0.835938 21.863281 1.023438 C 22.726562 1.390625 22.90625 1.46875 23.671875 1.886719 C 24.035156 2.109375 24.519531 2.410156 24.871094 2.652344 C 30.113281 6.601562 27.15625 10.503906 25.640625 11.996094 C 24.695312 12.925781 23.117188 14.484375 17.898438 17.015625 C 13.882812 18.964844 9.496094 19.945312 5.441406 21.796875 C 4.746094 20.425781 4.292969 18.867188 4.136719 17.171875 C 8.128906 15.605469 12.25 14.390625 16.15625 12.597656 C 19.339844 11.132812 21.578125 9.597656 22.527344 8.730469 C 26.386719 5.191406 24.441406 2.4375 21.605469 1.15625 C 19.875 0.375 17.742188 0.136719 16.75 0.609375 C 16.679688 0.535156 16.628906 0.390625 16.617188 0.289062 C 16.707031 0.210938 16.945312 0 18.105469 0.121094 " fill-opacity="1" fill-rule="nonzero"/><path fill="#084c7e" d="M 30.796875 13.457031 C 30.75 12.957031 30.691406 12.285156 30.617188 11.789062 C 30.3125 10.335938 30.304688 10.308594 30.039062 9.53125 C 29.519531 8.203125 29.5 8.152344 29.109375 7.425781 L 29.066406 7.34375 C 25.5 1.582031 15.976562 0.105469 15.203125 0.136719 L 14.84375 0.179688 C 13.832031 0.332031 13.183594 0.46875 12.003906 0.867188 C 12.238281 0.984375 12.238281 0.984375 13.089844 1.164062 C 14.796875 1.523438 20.75 2.960938 25.679688 6.265625 C 30.386719 9.414062 30.683594 12.351562 30.796875 13.457031 " fill-opacity="1" fill-rule="nonzero"/><g fill="#084c7e" fill-opacity="1"><g transform="translate(30.869388, 18.761672)"><g><path d="M 1.03125 0 L 1.03125 -10.65625 L 2.984375 -10.65625 L 2.984375 -6.21875 L 7.765625 -6.21875 L 7.765625 -10.65625 L 9.703125 -10.65625 L 9.703125 0 L 7.765625 0 L 7.765625 -4.640625 L 2.984375 -4.640625 L 2.984375 0 Z M 1.03125 0 "/></g></g></g><g fill="#084c7e" fill-opacity="1"><g transform="translate(40.84689, 18.761672)"><g><path d="M 1.03125 0 L 1.03125 -10.65625 L 2.984375 -10.65625 L 2.984375 -6.21875 L 7.765625 -6.21875 L 7.765625 -10.65625 L 9.703125 -10.65625 L 9.703125 0 L 7.765625 0 L 7.765625 -4.640625 L 2.984375 -4.640625 L 2.984375 0 Z M 1.03125 0 "/></g></g></g><g fill="#084c7e" fill-opacity="1"><g transform="translate(50.824393, 18.761672)"><g><path d="M 1.03125 0 L 1.03125 -10.65625 L 7.90625 -10.65625 L 7.90625 -9.078125 L 2.984375 -9.078125 L 2.984375 -6.109375 L 6.96875 -6.109375 L 6.96875 -4.5625 L 2.984375 -4.5625 L 2.984375 0 Z M 1.03125 0 "/></g></g></g><g fill="#000000" fill-opacity="1"><g transform="translate(58.445823, 18.761672)"><g/></g></g><g fill="#e52323" fill-opacity="1"><g transform="translate(61.314351, 18.761672)"><g><path d="M 4.359375 0 C 3.566406 0 2.929688 -0.191406 2.453125 -0.578125 C 1.972656 -0.960938 1.734375 -1.648438 1.734375 -2.640625 L 1.734375 -5.921875 L 0.4375 -5.921875 L 0.4375 -7.546875 L 1.734375 -7.546875 L 1.96875 -9.578125 L 3.6875 -9.578125 L 3.6875 -7.546875 L 5.71875 -7.546875 L 5.71875 -5.921875 L 3.6875 -5.921875 L 3.6875 -2.625 C 3.6875 -2.25 3.765625 -1.992188 3.921875 -1.859375 C 4.078125 -1.722656 4.347656 -1.65625 4.734375 -1.65625 L 5.671875 -1.65625 L 5.671875 0 Z M 4.359375 0 "/></g></g></g><g fill="#e52323" fill-opacity="1"><g transform="translate(66.956894, 18.761672)"><g><path d="M 4.65625 0.1875 C 3.894531 0.1875 3.21875 0.0234375 2.625 -0.296875 C 2.039062 -0.628906 1.582031 -1.085938 1.25 -1.671875 C 0.914062 -2.265625 0.75 -2.945312 0.75 -3.71875 C 0.75 -4.5 0.910156 -5.191406 1.234375 -5.796875 C 1.566406 -6.410156 2.023438 -6.882812 2.609375 -7.21875 C 3.191406 -7.5625 3.878906 -7.734375 4.671875 -7.734375 C 5.410156 -7.734375 6.0625 -7.566406 6.625 -7.234375 C 7.195312 -6.910156 7.644531 -6.46875 7.96875 -5.90625 C 8.289062 -5.34375 8.453125 -4.71875 8.453125 -4.03125 C 8.453125 -3.914062 8.445312 -3.796875 8.4375 -3.671875 C 8.4375 -3.554688 8.429688 -3.429688 8.421875 -3.296875 L 2.671875 -3.296875 C 2.710938 -2.710938 2.914062 -2.253906 3.28125 -1.921875 C 3.65625 -1.585938 4.109375 -1.421875 4.640625 -1.421875 C 5.035156 -1.421875 5.367188 -1.507812 5.640625 -1.6875 C 5.910156 -1.863281 6.109375 -2.09375 6.234375 -2.375 L 8.21875 -2.375 C 8.070312 -1.894531 7.832031 -1.457031 7.5 -1.0625 C 7.175781 -0.675781 6.769531 -0.367188 6.28125 -0.140625 C 5.800781 0.078125 5.257812 0.1875 4.65625 0.1875 Z M 4.671875 -6.140625 C 4.191406 -6.140625 3.769531 -6.003906 3.40625 -5.734375 C 3.039062 -5.472656 2.804688 -5.066406 2.703125 -4.515625 L 6.46875 -4.515625 C 6.4375 -5.015625 6.253906 -5.410156 5.921875 -5.703125 C 5.585938 -5.992188 5.171875 -6.140625 4.671875 -6.140625 Z M 4.671875 -6.140625 "/></g></g></g><g fill="#e52323" fill-opacity="1"><g transform="translate(75.291671, 18.761672)"><g><path d="M 4.6875 0.1875 C 3.914062 0.1875 3.234375 0.0195312 2.640625 -0.3125 C 2.054688 -0.65625 1.59375 -1.125 1.25 -1.71875 C 0.914062 -2.320312 0.75 -3.007812 0.75 -3.78125 C 0.75 -4.550781 0.914062 -5.234375 1.25 -5.828125 C 1.59375 -6.429688 2.054688 -6.898438 2.640625 -7.234375 C 3.234375 -7.566406 3.914062 -7.734375 4.6875 -7.734375 C 5.65625 -7.734375 6.46875 -7.476562 7.125 -6.96875 C 7.78125 -6.46875 8.203125 -5.78125 8.390625 -4.90625 L 6.328125 -4.90625 C 6.222656 -5.269531 6.019531 -5.554688 5.71875 -5.765625 C 5.425781 -5.972656 5.078125 -6.078125 4.671875 -6.078125 C 4.128906 -6.078125 3.671875 -5.875 3.296875 -5.46875 C 2.921875 -5.0625 2.734375 -4.5 2.734375 -3.78125 C 2.734375 -3.050781 2.921875 -2.484375 3.296875 -2.078125 C 3.671875 -1.671875 4.128906 -1.46875 4.671875 -1.46875 C 5.078125 -1.46875 5.425781 -1.566406 5.71875 -1.765625 C 6.019531 -1.972656 6.222656 -2.265625 6.328125 -2.640625 L 8.390625 -2.640625 C 8.203125 -1.796875 7.78125 -1.113281 7.125 -0.59375 C 6.46875 -0.0703125 5.65625 0.1875 4.6875 0.1875 Z M 4.6875 0.1875 "/></g></g></g><g fill="#e52323" fill-opacity="1"><g transform="translate(83.656874, 18.761672)"><g><path d="M 0.984375 0 L 0.984375 -10.953125 L 2.9375 -10.953125 L 2.9375 -6.390625 C 3.1875 -6.804688 3.523438 -7.132812 3.953125 -7.375 C 4.390625 -7.613281 4.890625 -7.734375 5.453125 -7.734375 C 6.378906 -7.734375 7.097656 -7.4375 7.609375 -6.84375 C 8.128906 -6.257812 8.390625 -5.398438 8.390625 -4.265625 L 8.390625 0 L 6.453125 0 L 6.453125 -4.078125 C 6.453125 -4.722656 6.320312 -5.21875 6.0625 -5.5625 C 5.800781 -5.914062 5.394531 -6.09375 4.84375 -6.09375 C 4.289062 -6.09375 3.832031 -5.898438 3.46875 -5.515625 C 3.113281 -5.128906 2.9375 -4.585938 2.9375 -3.890625 L 2.9375 0 Z M 0.984375 0 "/></g></g></g><g fill="#e52323" fill-opacity="1"><g transform="translate(92.143757, 18.761672)"><g><path d="M 0.828125 -3.59375 L 0.828125 -5.21875 L 7.203125 -5.21875 L 7.203125 -3.59375 Z M 0.828125 -3.59375 "/></g></g></g><g fill="#e52323" fill-opacity="1"><g transform="translate(99.398597, 18.761672)"><g><path d="M 4.359375 0 C 3.566406 0 2.929688 -0.191406 2.453125 -0.578125 C 1.972656 -0.960938 1.734375 -1.648438 1.734375 -2.640625 L 1.734375 -5.921875 L 0.4375 -5.921875 L 0.4375 -7.546875 L 1.734375 -7.546875 L 1.96875 -9.578125 L 3.6875 -9.578125 L 3.6875 -7.546875 L 5.71875 -7.546875 L 5.71875 -5.921875 L 3.6875 -5.921875 L 3.6875 -2.625 C 3.6875 -2.25 3.765625 -1.992188 3.921875 -1.859375 C 4.078125 -1.722656 4.347656 -1.65625 4.734375 -1.65625 L 5.671875 -1.65625 L 5.671875 0 Z M 4.359375 0 "/></g></g></g><g fill="#e52323" fill-opacity="1"><g transform="translate(105.041141, 18.761672)"><g><path d="M 2.046875 -8.71875 C 1.679688 -8.71875 1.382812 -8.820312 1.15625 -9.03125 C 0.9375 -9.25 0.828125 -9.519531 0.828125 -9.84375 C 0.828125 -10.164062 0.9375 -10.429688 1.15625 -10.640625 C 1.382812 -10.847656 1.679688 -10.953125 2.046875 -10.953125 C 2.398438 -10.953125 2.6875 -10.847656 2.90625 -10.640625 C 3.132812 -10.429688 3.25 -10.164062 3.25 -9.84375 C 3.25 -9.519531 3.132812 -9.25 2.90625 -9.03125 C 2.6875 -8.820312 2.398438 -8.71875 2.046875 -8.71875 Z M 1.0625 0 L 1.0625 -7.546875 L 3.015625 -7.546875 L 3.015625 0 Z M 1.0625 0 "/></g></g></g><g fill="#e52323" fill-opacity="1"><g transform="translate(108.341296, 18.761672)"><g><path d="M 0.984375 3.34375 L 0.984375 -7.546875 L 2.71875 -7.546875 L 2.9375 -6.46875 C 3.175781 -6.800781 3.492188 -7.09375 3.890625 -7.34375 C 4.296875 -7.601562 4.820312 -7.734375 5.46875 -7.734375 C 6.175781 -7.734375 6.804688 -7.5625 7.359375 -7.21875 C 7.921875 -6.875 8.363281 -6.398438 8.6875 -5.796875 C 9.007812 -5.203125 9.171875 -4.523438 9.171875 -3.765625 C 9.171875 -3.003906 9.007812 -2.328125 8.6875 -1.734375 C 8.363281 -1.140625 7.921875 -0.671875 7.359375 -0.328125 C 6.804688 0.015625 6.175781 0.1875 5.46875 0.1875 C 4.894531 0.1875 4.394531 0.0820312 3.96875 -0.125 C 3.539062 -0.34375 3.195312 -0.644531 2.9375 -1.03125 L 2.9375 3.34375 Z M 5.046875 -1.515625 C 5.671875 -1.515625 6.1875 -1.722656 6.59375 -2.140625 C 7 -2.554688 7.203125 -3.097656 7.203125 -3.765625 C 7.203125 -4.421875 7 -4.960938 6.59375 -5.390625 C 6.1875 -5.816406 5.671875 -6.03125 5.046875 -6.03125 C 4.421875 -6.03125 3.90625 -5.816406 3.5 -5.390625 C 3.101562 -4.972656 2.90625 -4.4375 2.90625 -3.78125 C 2.90625 -3.113281 3.101562 -2.566406 3.5 -2.140625 C 3.90625 -1.722656 4.421875 -1.515625 5.046875 -1.515625 Z M 5.046875 -1.515625 "/></g></g></g><g fill="#e52323" fill-opacity="1"><g transform="translate(117.497428, 18.761672)"><g><path d="M 4.109375 0.1875 C 3.441406 0.1875 2.851562 0.078125 2.34375 -0.140625 C 1.832031 -0.359375 1.425781 -0.660156 1.125 -1.046875 C 0.820312 -1.429688 0.640625 -1.878906 0.578125 -2.390625 L 2.546875 -2.390625 C 2.609375 -2.097656 2.769531 -1.847656 3.03125 -1.640625 C 3.300781 -1.429688 3.648438 -1.328125 4.078125 -1.328125 C 4.503906 -1.328125 4.816406 -1.410156 5.015625 -1.578125 C 5.210938 -1.753906 5.3125 -1.953125 5.3125 -2.171875 C 5.3125 -2.492188 5.164062 -2.710938 4.875 -2.828125 C 4.59375 -2.953125 4.203125 -3.070312 3.703125 -3.1875 C 3.378906 -3.25 3.046875 -3.332031 2.703125 -3.4375 C 2.367188 -3.539062 2.0625 -3.671875 1.78125 -3.828125 C 1.507812 -3.984375 1.285156 -4.1875 1.109375 -4.4375 C 0.941406 -4.6875 0.859375 -4.992188 0.859375 -5.359375 C 0.859375 -6.023438 1.125 -6.585938 1.65625 -7.046875 C 2.1875 -7.503906 2.929688 -7.734375 3.890625 -7.734375 C 4.785156 -7.734375 5.5 -7.523438 6.03125 -7.109375 C 6.5625 -6.691406 6.878906 -6.117188 6.984375 -5.390625 L 5.140625 -5.390625 C 5.023438 -5.941406 4.601562 -6.21875 3.875 -6.21875 C 3.507812 -6.21875 3.226562 -6.144531 3.03125 -6 C 2.832031 -5.863281 2.734375 -5.691406 2.734375 -5.484375 C 2.734375 -5.253906 2.878906 -5.070312 3.171875 -4.9375 C 3.472656 -4.8125 3.867188 -4.691406 4.359375 -4.578125 C 4.878906 -4.453125 5.359375 -4.316406 5.796875 -4.171875 C 6.242188 -4.023438 6.597656 -3.804688 6.859375 -3.515625 C 7.128906 -3.234375 7.265625 -2.820312 7.265625 -2.28125 C 7.273438 -1.8125 7.148438 -1.390625 6.890625 -1.015625 C 6.640625 -0.640625 6.273438 -0.34375 5.796875 -0.125 C 5.316406 0.0820312 4.753906 0.1875 4.109375 0.1875 Z M 4.109375 0.1875 "/></g></g></g><g fill="#000000" fill-opacity="1"><g transform="translate(124.723278, 18.761672)"><g/></g></g><g fill="#084c7e" fill-opacity="1"><g transform="translate(127.591806, 18.761672)"><g><path d="M 1.03125 0 L 1.03125 -10.65625 L 5.3125 -10.65625 C 6.414062 -10.65625 7.257812 -10.394531 7.84375 -9.875 C 8.425781 -9.363281 8.71875 -8.707031 8.71875 -7.90625 C 8.71875 -7.238281 8.535156 -6.703125 8.171875 -6.296875 C 7.816406 -5.898438 7.378906 -5.632812 6.859375 -5.5 C 7.472656 -5.375 7.976562 -5.066406 8.375 -4.578125 C 8.769531 -4.097656 8.96875 -3.539062 8.96875 -2.90625 C 8.96875 -2.0625 8.660156 -1.363281 8.046875 -0.8125 C 7.441406 -0.269531 6.582031 0 5.46875 0 Z M 2.984375 -6.171875 L 5.015625 -6.171875 C 5.566406 -6.171875 5.988281 -6.296875 6.28125 -6.546875 C 6.582031 -6.804688 6.734375 -7.171875 6.734375 -7.640625 C 6.734375 -8.085938 6.585938 -8.4375 6.296875 -8.6875 C 6.003906 -8.945312 5.566406 -9.078125 4.984375 -9.078125 L 2.984375 -9.078125 Z M 2.984375 -1.578125 L 5.15625 -1.578125 C 5.738281 -1.578125 6.1875 -1.710938 6.5 -1.984375 C 6.820312 -2.253906 6.984375 -2.632812 6.984375 -3.125 C 6.984375 -3.613281 6.816406 -4 6.484375 -4.28125 C 6.148438 -4.570312 5.695312 -4.71875 5.125 -4.71875 L 2.984375 -4.71875 Z M 2.984375 -1.578125 "/></g></g></g><g fill="#084c7e" fill-opacity="1"><g transform="translate(136.428521, 18.761672)"><g><path d="M 4.609375 0.1875 C 3.878906 0.1875 3.222656 0.0195312 2.640625 -0.3125 C 2.054688 -0.65625 1.59375 -1.125 1.25 -1.71875 C 0.914062 -2.3125 0.75 -3 0.75 -3.78125 C 0.75 -4.5625 0.921875 -5.25 1.265625 -5.84375 C 1.609375 -6.4375 2.070312 -6.898438 2.65625 -7.234375 C 3.238281 -7.566406 3.894531 -7.734375 4.625 -7.734375 C 5.34375 -7.734375 5.992188 -7.566406 6.578125 -7.234375 C 7.160156 -6.898438 7.625 -6.4375 7.96875 -5.84375 C 8.3125 -5.25 8.484375 -4.5625 8.484375 -3.78125 C 8.484375 -3 8.3125 -2.3125 7.96875 -1.71875 C 7.625 -1.125 7.15625 -0.65625 6.5625 -0.3125 C 5.976562 0.0195312 5.328125 0.1875 4.609375 0.1875 Z M 4.609375 -1.5 C 5.117188 -1.5 5.5625 -1.6875 5.9375 -2.0625 C 6.3125 -2.445312 6.5 -3.019531 6.5 -3.78125 C 6.5 -4.53125 6.3125 -5.09375 5.9375 -5.46875 C 5.5625 -5.851562 5.125 -6.046875 4.625 -6.046875 C 4.101562 -6.046875 3.65625 -5.851562 3.28125 -5.46875 C 2.914062 -5.09375 2.734375 -4.53125 2.734375 -3.78125 C 2.734375 -3.019531 2.914062 -2.445312 3.28125 -2.0625 C 3.65625 -1.6875 4.097656 -1.5 4.609375 -1.5 Z M 4.609375 -1.5 "/></g></g></g><g fill="#084c7e" fill-opacity="1"><g transform="translate(144.884978, 18.761672)"><g><path d="M 4.609375 0.1875 C 3.878906 0.1875 3.222656 0.0195312 2.640625 -0.3125 C 2.054688 -0.65625 1.59375 -1.125 1.25 -1.71875 C 0.914062 -2.3125 0.75 -3 0.75 -3.78125 C 0.75 -4.5625 0.921875 -5.25 1.265625 -5.84375 C 1.609375 -6.4375 2.070312 -6.898438 2.65625 -7.234375 C 3.238281 -7.566406 3.894531 -7.734375 4.625 -7.734375 C 5.34375 -7.734375 5.992188 -7.566406 6.578125 -7.234375 C 7.160156 -6.898438 7.625 -6.4375 7.96875 -5.84375 C 8.3125 -5.25 8.484375 -4.5625 8.484375 -3.78125 C 8.484375 -3 8.3125 -2.3125 7.96875 -1.71875 C 7.625 -1.125 7.15625 -0.65625 6.5625 -0.3125 C 5.976562 0.0195312 5.328125 0.1875 4.609375 0.1875 Z M 4.609375 -1.5 C 5.117188 -1.5 5.5625 -1.6875 5.9375 -2.0625 C 6.3125 -2.445312 6.5 -3.019531 6.5 -3.78125 C 6.5 -4.53125 6.3125 -5.09375 5.9375 -5.46875 C 5.5625 -5.851562 5.125 -6.046875 4.625 -6.046875 C 4.101562 -6.046875 3.65625 -5.851562 3.28125 -5.46875 C 2.914062 -5.09375 2.734375 -4.53125 2.734375 -3.78125 C 2.734375 -3.019531 2.914062 -2.445312 3.28125 -2.0625 C 3.65625 -1.6875 4.097656 -1.5 4.609375 -1.5 Z M 4.609375 -1.5 "/></g></g></g><g fill="#084c7e" fill-opacity="1"><g transform="translate(153.341436, 18.761672)"><g><path d="M 0.984375 0 L 0.984375 -10.953125 L 2.9375 -10.953125 L 2.9375 -4.484375 L 5.609375 -7.546875 L 7.921875 -7.546875 L 4.84375 -4.109375 L 8.4375 0 L 6 0 L 2.9375 -3.796875 L 2.9375 0 Z M 0.984375 0 "/></g></g></g><g clip-path="url(#26ed191be9)"><g fill="#084c7e" fill-opacity="1"><g transform="translate(161.219907, 18.761672)"><g><path d="M 4.109375 0.1875 C 3.441406 0.1875 2.851562 0.078125 2.34375 -0.140625 C 1.832031 -0.359375 1.425781 -0.660156 1.125 -1.046875 C 0.820312 -1.429688 0.640625 -1.878906 0.578125 -2.390625 L 2.546875 -2.390625 C 2.609375 -2.097656 2.769531 -1.847656 3.03125 -1.640625 C 3.300781 -1.429688 3.648438 -1.328125 4.078125 -1.328125 C 4.503906 -1.328125 4.816406 -1.410156 5.015625 -1.578125 C 5.210938 -1.753906 5.3125 -1.953125 5.3125 -2.171875 C 5.3125 -2.492188 5.164062 -2.710938 4.875 -2.828125 C 4.59375 -2.953125 4.203125 -3.070312 3.703125 -3.1875 C 3.378906 -3.25 3.046875 -3.332031 2.703125 -3.4375 C 2.367188 -3.539062 2.0625 -3.671875 1.78125 -3.828125 C 1.507812 -3.984375 1.285156 -4.1875 1.109375 -4.4375 C 0.941406 -4.6875 0.859375 -4.992188 0.859375 -5.359375 C 0.859375 -6.023438 1.125 -6.585938 1.65625 -7.046875 C 2.1875 -7.503906 2.929688 -7.734375 3.890625 -7.734375 C 4.785156 -7.734375 5.5 -7.523438 6.03125 -7.109375 C 6.5625 -6.691406 6.878906 -6.117188 6.984375 -5.390625 L 5.140625 -5.390625 C 5.023438 -5.941406 4.601562 -6.21875 3.875 -6.21875 C 3.507812 -6.21875 3.226562 -6.144531 3.03125 -6 C 2.832031 -5.863281 2.734375 -5.691406 2.734375 -5.484375 C 2.734375 -5.253906 2.878906 -5.070312 3.171875 -4.9375 C 3.472656 -4.8125 3.867188 -4.691406 4.359375 -4.578125 C 4.878906 -4.453125 5.359375 -4.316406 5.796875 -4.171875 C 6.242188 -4.023438 6.597656 -3.804688 6.859375 -3.515625 C 7.128906 -3.234375 7.265625 -2.820312 7.265625 -2.28125 C 7.273438 -1.8125 7.148438 -1.390625 6.890625 -1.015625 C 6.640625 -0.640625 6.273438 -0.34375 5.796875 -0.125 C 5.316406 0.0820312 4.753906 0.1875 4.109375 0.1875 Z M 4.109375 0.1875 "/></g></g></g></g></svg>