<svg xmlns="http://www.w3.org/2000/svg" xmlns:xlink="http://www.w3.org/1999/xlink" width="474" zoomAndPan="magnify" viewBox="0 0 355.5 389.999986" height="520" preserveAspectRatio="xMidYMid meet" version="1.0"><defs><clipPath id="60ba610fa1"><path d="M 1.046875 15.324219 L 355 15.324219 L 355 372.792969 L 1.046875 372.792969 Z M 1.046875 15.324219 " clip-rule="nonzero"/></clipPath><clipPath id="1374f3ebd9"><path d="M 178.023438 15.324219 C 80.285156 15.324219 1.046875 95.347656 1.046875 194.058594 C 1.046875 292.769531 80.285156 372.792969 178.023438 372.792969 C 275.765625 372.792969 355 292.769531 355 194.058594 C 355 95.347656 275.765625 15.324219 178.023438 15.324219 Z M 178.023438 15.324219 " clip-rule="nonzero"/></clipPath><clipPath id="f7e7f6723c"><path d="M 88 220 L 177 220 L 177 288.894531 L 88 288.894531 Z M 88 220 " clip-rule="nonzero"/></clipPath><clipPath id="794a8cd410"><path d="M 15 92.882812 L 354.996094 92.882812 L 354.996094 283 L 15 283 Z M 15 92.882812 " clip-rule="nonzero"/></clipPath></defs><g clip-path="url(#60ba610fa1)"><g clip-path="url(#1374f3ebd9)"><path fill="#000000" d="M 1.046875 15.324219 L 354.910156 15.324219 L 354.910156 372.792969 L 1.046875 372.792969 Z M 1.046875 15.324219 " fill-opacity="1" fill-rule="nonzero"/></g></g><g clip-path="url(#f7e7f6723c)"><path fill="#d9d9d9" d="M 88.246094 263.308594 C 90.140625 262.363281 91.796875 261.023438 93.058594 259.363281 L 105.363281 271.355469 C 106.628906 270.726562 107.96875 270.410156 109.46875 270.410156 C 109.941406 270.410156 110.492188 270.488281 110.964844 270.488281 L 121.695312 255.578125 C 119.960938 253.84375 118.933594 251.476562 118.933594 248.871094 C 118.933594 243.667969 123.117188 239.484375 128.320312 239.484375 C 130.6875 239.484375 132.898438 240.351562 134.554688 241.851562 C 142.917969 236.804688 149.9375 229.859375 155.222656 221.65625 C 156.5625 219.527344 159.800781 219.921875 160.585938 222.285156 L 160.585938 222.367188 C 160.902344 223.234375 160.746094 224.257812 160.273438 225.046875 C 154.511719 234.042969 146.703125 241.613281 137.550781 247.136719 C 137.550781 247.296875 137.632812 247.453125 137.632812 247.691406 L 153.882812 249.347656 C 153.410156 250.6875 153.171875 252.105469 153.171875 253.605469 C 153.171875 254.238281 153.25 254.949219 153.328125 255.578125 L 136.289062 253.84375 C 134.632812 256.523438 131.636719 258.339844 128.242188 258.339844 C 127.925781 258.339844 127.613281 258.339844 127.375 258.261719 L 116.410156 273.484375 C 116.882812 274.039062 117.355469 274.589844 117.671875 275.222656 C 132.34375 272.617188 146.152344 266.308594 157.828125 256.761719 C 157.433594 255.734375 157.273438 254.632812 157.273438 253.527344 C 157.273438 248.320312 161.457031 244.140625 166.664062 244.140625 C 171.867188 244.140625 176.050781 248.320312 176.050781 253.527344 C 176.050781 258.734375 171.867188 262.914062 166.664062 262.914062 C 164.847656 262.914062 163.113281 262.363281 161.691406 261.496094 C 149.542969 271.355469 134.871094 278.296875 118.777344 281.21875 C 118.066406 285.714844 114.199219 289.105469 109.46875 289.105469 C 104.261719 289.105469 100.078125 284.925781 100.078125 279.71875 C 100.078125 278.296875 100.394531 276.878906 101.027344 275.695312 Z M 128.320312 254.238281 C 131.242188 254.238281 133.609375 251.871094 133.609375 248.953125 C 133.609375 246.03125 131.242188 243.667969 128.320312 243.667969 C 125.402344 243.667969 123.035156 246.03125 123.035156 248.953125 C 123.035156 251.871094 125.402344 254.238281 128.320312 254.238281 Z M 109.546875 285.082031 C 112.464844 285.082031 114.832031 282.714844 114.832031 279.796875 C 114.832031 276.878906 112.464844 274.511719 109.546875 274.511719 C 106.628906 274.511719 104.261719 276.878906 104.261719 279.796875 C 104.183594 282.714844 106.628906 285.082031 109.546875 285.082031 Z M 109.546875 285.082031 " fill-opacity="1" fill-rule="nonzero"/></g><path fill="#d9d9d9" d="M 7.070312 192.152344 C 6.988281 190.890625 6.988281 189.546875 6.988281 188.285156 C 6.832031 160.359375 18.902344 135.113281 38.152344 117.601562 C 39.019531 119.496094 40.28125 121.152344 41.859375 122.414062 C 41.78125 122.492188 41.703125 122.570312 41.621094 122.648438 C 22.53125 140.398438 12.277344 165.011719 13.222656 191.125 C 13.222656 191.363281 13.222656 191.597656 13.222656 191.835938 C 17.085938 193.019531 19.929688 196.570312 19.929688 200.828125 C 19.929688 201.539062 19.847656 202.25 19.691406 202.878906 L 37.125 214.160156 C 38.863281 212.269531 41.308594 211.085938 44.066406 211.085938 C 49.273438 211.085938 53.457031 215.265625 53.457031 220.472656 C 53.457031 222.523438 52.824219 224.417969 51.71875 225.914062 C 57.875 234.042969 66 240.589844 75.308594 244.929688 C 77.042969 242.957031 79.566406 241.695312 82.410156 241.695312 C 87.21875 241.695312 91.242188 245.324219 91.71875 250.054688 C 95.109375 250.609375 98.660156 250.925781 102.210938 250.84375 C 106.546875 250.84375 110.730469 250.371094 114.753906 249.503906 C 114.832031 251.632812 115.464844 253.605469 116.488281 255.421875 C 111.441406 256.523438 106.234375 257.078125 100.867188 257 C 97.320312 256.917969 93.769531 256.605469 90.296875 256.050781 C 88.640625 258.734375 85.722656 260.46875 82.328125 260.46875 C 79.648438 260.46875 77.203125 259.363281 75.542969 257.550781 L 57.085938 260.234375 C 57.085938 259.839844 57.164062 259.445312 57.164062 259.050781 C 57.164062 257.3125 56.847656 255.65625 56.21875 254.078125 L 73.019531 251.632812 C 73.019531 251.476562 73.019531 251.238281 73.019531 251.082031 C 73.019531 250.925781 73.019531 250.765625 73.019531 250.6875 C 62.605469 245.875 53.613281 238.539062 46.75 229.542969 C 46.511719 229.625 46.277344 229.703125 46.039062 229.703125 L 46.039062 249.976562 C 50.0625 251.003906 53.0625 254.710938 53.0625 259.050781 C 53.0625 259.996094 52.902344 260.863281 52.667969 261.730469 C 65.605469 270.410156 80.671875 275.457031 96.449219 276.40625 C 96.214844 277.429688 96.054688 278.535156 96.054688 279.71875 C 96.054688 280.664062 96.136719 281.613281 96.371094 282.558594 C 79.175781 281.53125 63 275.773438 49.355469 266.542969 C 47.777344 267.726562 45.804688 268.4375 43.671875 268.4375 C 38.46875 268.4375 34.285156 264.257812 34.285156 259.050781 C 34.285156 257.550781 34.601562 256.210938 35.234375 254.949219 C 23.003906 242.796875 13.933594 227.335938 9.671875 210.21875 C 4.859375 209.824219 1.074219 205.800781 1.074219 200.828125 C 1.152344 196.964844 3.597656 193.570312 7.070312 192.152344 Z M 44.066406 225.835938 C 46.988281 225.835938 49.355469 223.46875 49.355469 220.550781 C 49.355469 217.632812 46.988281 215.265625 44.066406 215.265625 C 41.148438 215.265625 38.78125 217.632812 38.78125 220.550781 C 38.78125 223.46875 41.148438 225.835938 44.066406 225.835938 Z M 39.253906 250.84375 C 39.492188 250.765625 39.648438 250.609375 39.886719 250.53125 L 39.886719 228.914062 C 36.808594 227.335938 34.679688 224.179688 34.679688 220.550781 C 34.679688 220.394531 34.679688 220.234375 34.679688 220.078125 L 16.378906 208.246094 C 16.140625 208.480469 15.824219 208.640625 15.589844 208.796875 C 19.453125 224.652344 27.582031 239.25 39.253906 250.84375 Z M 10.539062 206.273438 C 13.457031 206.273438 15.824219 203.90625 15.824219 200.988281 C 15.824219 198.066406 13.457031 195.703125 10.539062 195.703125 C 7.621094 195.703125 5.253906 198.066406 5.253906 200.988281 C 5.253906 203.90625 7.542969 206.273438 10.539062 206.273438 Z M 10.539062 206.273438 " fill-opacity="1" fill-rule="nonzero"/><g clip-path="url(#794a8cd410)"><path fill="#ffffff" d="M 33.65625 163.199219 C 33.417969 162.410156 33.339844 161.621094 33.339844 160.753906 C 33.339844 156.335938 36.335938 152.628906 40.4375 151.601562 L 44.542969 119.414062 C 42.332031 117.679688 40.992188 114.996094 40.992188 112.078125 C 40.992188 106.871094 45.171875 102.691406 50.378906 102.691406 C 52.589844 102.691406 54.558594 103.480469 56.136719 104.664062 C 69.707031 97.167969 85.328125 92.910156 101.894531 92.910156 C 112.308594 92.910156 122.328125 94.566406 131.636719 97.640625 C 133.371094 95.828125 135.738281 94.722656 138.417969 94.722656 C 143.625 94.722656 147.808594 98.902344 147.808594 104.109375 C 147.808594 106.714844 146.78125 109 145.125 110.738281 L 155.066406 135.746094 C 158.0625 136.929688 160.273438 139.691406 160.824219 142.925781 L 179.914062 152.234375 C 178.574219 153.8125 177.707031 155.703125 177.234375 157.753906 L 159.640625 149.15625 C 159.5625 149.234375 159.5625 149.3125 159.484375 149.394531 C 165.320312 158.148438 169.265625 168.328125 170.605469 179.292969 C 171.238281 184.183594 175.417969 187.8125 180.308594 187.8125 C 186.226562 187.8125 190.722656 182.683594 190.011719 176.847656 C 189.699219 174.558594 189.382812 172.269531 188.910156 170.0625 C 184.332031 169.429688 180.863281 165.488281 180.863281 160.753906 C 180.863281 157.992188 182.046875 155.546875 183.9375 153.8125 C 179.519531 143.160156 173.050781 133.457031 164.691406 125.015625 C 159.878906 120.203125 154.59375 116.023438 148.992188 112.472656 C 150.253906 110.894531 151.199219 109 151.59375 106.949219 C 168.476562 117.363281 181.808594 132.90625 189.539062 151.367188 C 189.777344 151.367188 190.011719 151.367188 190.25 151.367188 C 195.457031 151.367188 199.636719 155.546875 199.636719 160.753906 C 199.636719 164.222656 197.746094 167.300781 194.90625 168.957031 C 196.089844 174.875 196.71875 180.949219 196.796875 187.179688 C 197.035156 222.050781 224.726562 250.765625 259.59375 250.925781 C 294.699219 251.082031 323.257812 222.445312 322.941406 187.261719 C 322.625 152.628906 294.070312 124.542969 259.515625 124.78125 C 243.578125 124.859375 229.0625 130.855469 218.019531 140.714844 C 210.523438 147.421875 198.691406 145.527344 193.800781 136.691406 C 193.722656 136.613281 193.640625 136.457031 193.640625 136.375 C 190.011719 129.90625 191.433594 121.78125 196.957031 116.8125 C 213.917969 101.742188 236.320312 92.671875 260.855469 92.910156 C 313.160156 93.382812 354.972656 135.746094 354.890625 188.050781 C 354.8125 240.433594 312.292969 282.796875 259.910156 282.796875 C 207.683594 282.796875 165.320312 240.667969 164.925781 188.523438 C 164.847656 175.585938 160.980469 163.4375 154.355469 153.335938 C 153.488281 153.652344 152.460938 153.8125 151.515625 153.8125 C 146.308594 153.8125 142.128906 149.628906 142.128906 144.421875 C 142.128906 140.320312 144.730469 136.851562 148.359375 135.585938 L 139.601562 113.5 C 139.207031 113.578125 138.894531 113.578125 138.5 113.578125 C 133.292969 113.578125 129.109375 109.394531 129.109375 104.191406 C 129.109375 103.875 129.109375 103.558594 129.191406 103.320312 C 120.589844 100.5625 111.597656 99.0625 102.445312 99.0625 C 87.929688 98.984375 73.652344 102.453125 60.949219 109.082031 L 84.066406 114.289062 C 82.960938 116.023438 82.25 117.996094 82.015625 120.125 L 59.292969 114.996094 C 58.109375 118.707031 54.640625 121.386719 50.535156 121.464844 L 47.460938 145.132812 C 57.007812 132.984375 70.574219 124.148438 86.039062 120.441406 C 86.667969 115.785156 90.613281 112.15625 95.425781 112.15625 C 97.003906 112.15625 98.421875 112.550781 99.683594 113.183594 L 125.007812 104.898438 C 125.167969 107.03125 125.796875 109.082031 126.746094 110.816406 L 104.183594 118.152344 C 104.261719 118.3125 104.261719 118.46875 104.339844 118.625 C 119.328125 119.179688 133.132812 124.464844 144.179688 133.0625 C 142.363281 134.246094 140.867188 135.824219 139.839844 137.640625 C 129.898438 129.988281 117.59375 125.253906 104.183594 124.78125 C 102.839844 128.410156 99.449219 130.933594 95.347656 130.933594 C 91.953125 130.933594 88.957031 129.117188 87.300781 126.4375 C 71.207031 130.222656 57.480469 140.164062 48.800781 153.652344 C 50.773438 155.390625 52.035156 157.914062 52.035156 160.753906 C 52.035156 165.960938 47.855469 170.140625 42.648438 170.140625 C 42.175781 170.140625 41.78125 170.140625 41.308594 170.0625 C 39.570312 175.898438 38.703125 182.054688 38.78125 188.445312 C 38.863281 194.992188 39.886719 201.300781 41.859375 207.296875 C 39.808594 207.613281 37.835938 208.480469 36.179688 209.664062 C 33.96875 203.039062 32.707031 195.859375 32.628906 188.523438 C 32.550781 183.15625 33.179688 177.871094 34.285156 172.824219 L 20.480469 191.914062 C 19.058594 190.335938 17.324219 189.152344 15.429688 188.363281 Z M 146.230469 144.421875 C 146.230469 147.34375 148.597656 149.707031 151.515625 149.707031 C 154.433594 149.707031 156.800781 147.34375 156.800781 144.421875 C 156.800781 141.503906 154.433594 139.136719 151.515625 139.136719 C 148.597656 139.136719 146.230469 141.503906 146.230469 144.421875 Z M 138.5 109.476562 C 141.417969 109.476562 143.785156 107.109375 143.785156 104.191406 C 143.785156 101.269531 141.417969 98.902344 138.5 98.902344 C 135.578125 98.902344 133.214844 101.269531 133.214844 104.191406 C 133.214844 107.109375 135.5 109.476562 138.5 109.476562 Z M 42.726562 166.039062 C 45.644531 166.039062 48.011719 163.671875 48.011719 160.753906 C 48.011719 157.835938 45.644531 155.46875 42.726562 155.46875 C 39.808594 155.46875 37.441406 157.835938 37.441406 160.753906 C 37.363281 163.671875 39.730469 166.039062 42.726562 166.039062 Z M 42.726562 166.039062 " fill-opacity="1" fill-rule="nonzero"/></g></svg>