<?xml version="1.0" encoding="UTF-8"?>
<svg xmlns="http://www.w3.org/2000/svg" xmlns:xlink="http://www.w3.org/1999/xlink" width="160px" height="28px" viewBox="0 0 160 28" version="1.1">
<defs>
<clipPath id="clip1">
  <path d="M 15.332031 3.589844 L 23.332031 3.589844 L 23.332031 10 L 15.332031 10 Z M 15.332031 3.589844 "/>
</clipPath>
<clipPath id="clip2">
  <path d="M 7.632812 3.589844 L 18 3.589844 L 18 18.667969 L 7.632812 18.667969 Z M 7.632812 3.589844 "/>
</clipPath>
<clipPath id="clip3">
  <path d="M 8.667969 3.589844 L 38.890625 3.589844 L 38.890625 20.667969 L 8.667969 20.667969 Z M 8.667969 3.589844 "/>
</clipPath>
</defs>
<g id="surface1">
<path style=" stroke:none;fill-rule:nonzero;fill:rgb(85.098039%,85.098039%,85.098039%);fill-opacity:1;" d="M 45.183594 18.402344 L 45.183594 3.882812 L 47.839844 3.882812 L 47.839844 9.914062 L 54.359375 9.914062 L 54.359375 3.882812 L 57.015625 3.882812 L 57.015625 18.402344 L 54.359375 18.402344 L 54.359375 12.070312 L 47.839844 12.070312 L 47.839844 18.402344 Z M 45.183594 18.402344 "/>
<path style=" stroke:none;fill-rule:nonzero;fill:rgb(85.098039%,85.098039%,85.098039%);fill-opacity:1;" d="M 57.675781 18.402344 L 57.675781 3.882812 L 60.332031 3.882812 L 60.332031 9.914062 L 66.851562 9.914062 L 66.851562 3.882812 L 69.507812 3.882812 L 69.507812 18.402344 L 66.851562 18.402344 L 66.851562 12.070312 L 60.332031 12.070312 L 60.332031 18.402344 Z M 57.675781 18.402344 "/>
<path style=" stroke:none;fill-rule:nonzero;fill:rgb(85.098039%,85.098039%,85.098039%);fill-opacity:1;" d="M 70.167969 18.402344 L 70.167969 3.882812 L 79.554688 3.882812 L 79.554688 6.019531 L 72.824219 6.019531 L 72.824219 10.082031 L 78.261719 10.082031 L 78.261719 12.175781 L 72.824219 12.175781 L 72.824219 18.402344 Z M 70.167969 18.402344 "/>
<path style=" stroke:none;fill-rule:nonzero;fill:rgb(85.098039%,85.098039%,85.098039%);fill-opacity:1;" d="M 86.757812 18.402344 C 85.671875 18.402344 84.804688 18.144531 84.152344 17.621094 C 83.507812 17.097656 83.183594 16.160156 83.183594 14.808594 L 83.183594 10.332031 L 81.421875 10.332031 L 81.421875 8.113281 L 83.183594 8.113281 L 83.496094 5.351562 L 85.839844 5.351562 L 85.839844 8.113281 L 88.621094 8.113281 L 88.621094 10.332031 L 85.839844 10.332031 L 85.839844 14.832031 C 85.839844 15.332031 85.945312 15.675781 86.164062 15.863281 C 86.375 16.050781 86.75 16.144531 87.277344 16.144531 L 88.558594 16.144531 L 88.558594 18.402344 Z M 86.757812 18.402344 "/>
<path style=" stroke:none;fill-rule:nonzero;fill:rgb(85.098039%,85.098039%,85.098039%);fill-opacity:1;" d="M 93.75 18.652344 C 92.710938 18.652344 91.785156 18.429688 90.980469 17.988281 C 90.179688 17.542969 89.554688 16.921875 89.09375 16.121094 C 88.640625 15.316406 88.417969 14.390625 88.417969 13.339844 C 88.417969 12.277344 88.640625 11.335938 89.085938 10.507812 C 89.535156 9.675781 90.15625 9.027344 90.949219 8.558594 C 91.746094 8.097656 92.6875 7.863281 93.773438 7.863281 C 94.777344 7.863281 95.667969 8.085938 96.4375 8.527344 C 97.214844 8.972656 97.824219 9.582031 98.261719 10.351562 C 98.699219 11.117188 98.917969 11.964844 98.917969 12.902344 C 98.917969 13.058594 98.914062 13.214844 98.90625 13.382812 C 98.898438 13.550781 98.890625 13.722656 98.875 13.902344 L 91.054688 13.902344 C 91.109375 14.703125 91.386719 15.332031 91.886719 15.789062 C 92.390625 16.246094 93.007812 16.476562 93.730469 16.476562 C 94.265625 16.476562 94.714844 16.355469 95.085938 16.113281 C 95.453125 15.871094 95.726562 15.554688 95.90625 15.164062 L 98.605469 15.164062 C 98.410156 15.816406 98.085938 16.410156 97.636719 16.945312 C 97.183594 17.472656 96.628906 17.890625 95.96875 18.195312 C 95.316406 18.5 94.578125 18.652344 93.75 18.652344 Z M 93.773438 10.019531 C 93.117188 10.019531 92.542969 10.203125 92.042969 10.570312 C 91.542969 10.941406 91.226562 11.496094 91.09375 12.238281 L 96.21875 12.238281 C 96.179688 11.566406 95.929688 11.027344 95.46875 10.621094 C 95.011719 10.222656 94.445312 10.019531 93.773438 10.019531 Z M 93.773438 10.019531 "/>
<path style=" stroke:none;fill-rule:nonzero;fill:rgb(85.098039%,85.098039%,85.098039%);fill-opacity:1;" d="M 104.042969 18.652344 C 102.988281 18.652344 102.058594 18.425781 101.253906 17.964844 C 100.453125 17.507812 99.820312 16.871094 99.355469 16.058594 C 98.898438 15.242188 98.667969 14.308594 98.667969 13.257812 C 98.667969 12.210938 98.898438 11.277344 99.355469 10.464844 C 99.820312 9.648438 100.453125 9.007812 101.253906 8.550781 C 102.058594 8.089844 102.988281 7.863281 104.042969 7.863281 C 105.355469 7.863281 106.460938 8.207031 107.355469 8.894531 C 108.257812 9.574219 108.835938 10.519531 109.085938 11.726562 L 106.285156 11.726562 C 106.144531 11.226562 105.871094 10.835938 105.460938 10.550781 C 105.050781 10.265625 104.570312 10.121094 104.023438 10.121094 C 103.285156 10.121094 102.660156 10.402344 102.148438 10.957031 C 101.640625 11.511719 101.386719 12.277344 101.386719 13.257812 C 101.386719 14.238281 101.640625 15.003906 102.148438 15.558594 C 102.660156 16.117188 103.285156 16.394531 104.023438 16.394531 C 104.570312 16.394531 105.050781 16.253906 105.460938 15.976562 C 105.871094 15.699219 106.144531 15.304688 106.285156 14.789062 L 109.085938 14.789062 C 108.835938 15.957031 108.257812 16.894531 107.355469 17.601562 C 106.460938 18.304688 105.355469 18.652344 104.042969 18.652344 Z M 104.042969 18.652344 "/>
<path style=" stroke:none;fill-rule:nonzero;fill:rgb(85.098039%,85.098039%,85.098039%);fill-opacity:1;" d="M 109.285156 18.402344 L 109.285156 3.464844 L 111.941406 3.464844 L 111.941406 9.683594 C 112.289062 9.121094 112.757812 8.679688 113.347656 8.351562 C 113.9375 8.027344 114.613281 7.863281 115.371094 7.863281 C 116.640625 7.863281 117.625 8.265625 118.328125 9.070312 C 119.027344 9.871094 119.378906 11.042969 119.378906 12.589844 L 119.378906 18.402344 L 116.746094 18.402344 L 116.746094 12.839844 C 116.746094 11.960938 116.566406 11.285156 116.214844 10.808594 C 115.859375 10.339844 115.300781 10.101562 114.535156 10.101562 C 113.792969 10.101562 113.175781 10.367188 112.683594 10.894531 C 112.1875 11.421875 111.941406 12.152344 111.941406 13.089844 L 111.941406 18.402344 Z M 109.285156 18.402344 "/>
<path style=" stroke:none;fill-rule:nonzero;fill:rgb(85.098039%,85.098039%,85.098039%);fill-opacity:1;" d="M 124.339844 18.402344 C 123.253906 18.402344 122.386719 18.144531 121.734375 17.621094 C 121.089844 17.097656 120.765625 16.160156 120.765625 14.808594 L 120.765625 10.332031 L 119.003906 10.332031 L 119.003906 8.113281 L 120.765625 8.113281 L 121.078125 5.351562 L 123.421875 5.351562 L 123.421875 8.113281 L 126.203125 8.113281 L 126.203125 10.332031 L 123.421875 10.332031 L 123.421875 14.832031 C 123.421875 15.332031 123.527344 15.675781 123.746094 15.863281 C 123.957031 16.050781 124.332031 16.144531 124.859375 16.144531 L 126.140625 16.144531 L 126.140625 18.402344 Z M 124.339844 18.402344 "/>
<path style=" stroke:none;fill-rule:nonzero;fill:rgb(85.098039%,85.098039%,85.098039%);fill-opacity:1;" d="M 127.761719 6.519531 C 127.273438 6.519531 126.875 6.371094 126.5625 6.082031 C 126.257812 5.789062 126.105469 5.421875 126.105469 4.976562 C 126.105469 4.535156 126.257812 4.171875 126.5625 3.894531 C 126.875 3.609375 127.273438 3.464844 127.761719 3.464844 C 128.246094 3.464844 128.640625 3.609375 128.949219 3.894531 C 129.261719 4.171875 129.417969 4.535156 129.417969 4.976562 C 129.417969 5.421875 129.261719 5.789062 128.949219 6.082031 C 128.640625 6.371094 128.246094 6.519531 127.761719 6.519531 Z M 126.429688 18.402344 L 126.429688 8.113281 L 129.085938 8.113281 L 129.085938 18.402344 Z M 126.429688 18.402344 "/>
<path style=" stroke:none;fill-rule:nonzero;fill:rgb(85.098039%,85.098039%,85.098039%);fill-opacity:1;" d="M 129.707031 22.964844 L 129.707031 8.113281 L 132.082031 8.113281 L 132.363281 9.582031 C 132.695312 9.128906 133.136719 8.730469 133.683594 8.382812 C 134.230469 8.035156 134.941406 7.863281 135.808594 7.863281 C 136.78125 7.863281 137.644531 8.097656 138.402344 8.570312 C 139.167969 9.042969 139.769531 9.691406 140.207031 10.507812 C 140.648438 11.320312 140.871094 12.246094 140.871094 13.277344 C 140.871094 14.316406 140.648438 15.238281 140.207031 16.050781 C 139.769531 16.855469 139.167969 17.492188 138.402344 17.957031 C 137.644531 18.417969 136.78125 18.652344 135.808594 18.652344 C 135.039062 18.652344 134.363281 18.507812 133.777344 18.214844 C 133.195312 17.925781 132.722656 17.519531 132.363281 16.996094 L 132.363281 22.964844 Z M 135.246094 16.332031 C 136.09375 16.332031 136.792969 16.046875 137.339844 15.476562 C 137.894531 14.910156 138.175781 14.175781 138.175781 13.277344 C 138.175781 12.378906 137.894531 11.636719 137.339844 11.058594 C 136.792969 10.476562 136.09375 10.183594 135.246094 10.183594 C 134.394531 10.183594 133.691406 10.472656 133.144531 11.050781 C 132.59375 11.628906 132.320312 12.363281 132.320312 13.257812 C 132.320312 14.152344 132.59375 14.890625 133.144531 15.464844 C 133.691406 16.042969 134.394531 16.332031 135.246094 16.332031 Z M 135.246094 16.332031 "/>
<path style=" stroke:none;fill-rule:nonzero;fill:rgb(85.098039%,85.098039%,85.098039%);fill-opacity:1;" d="M 145.339844 18.652344 C 144.421875 18.652344 143.613281 18.503906 142.921875 18.207031 C 142.234375 17.910156 141.683594 17.496094 141.265625 16.976562 C 140.855469 16.449219 140.609375 15.839844 140.527344 15.144531 L 143.203125 15.144531 C 143.285156 15.546875 143.507812 15.890625 143.871094 16.175781 C 144.238281 16.460938 144.714844 16.601562 145.296875 16.601562 C 145.878906 16.601562 146.300781 16.484375 146.566406 16.246094 C 146.839844 16.011719 146.972656 15.742188 146.972656 15.433594 C 146.972656 14.992188 146.777344 14.691406 146.390625 14.539062 C 146.007812 14.378906 145.46875 14.222656 144.777344 14.070312 C 144.332031 13.972656 143.878906 13.855469 143.421875 13.714844 C 142.96875 13.578125 142.550781 13.402344 142.171875 13.183594 C 141.789062 12.972656 141.480469 12.695312 141.246094 12.363281 C 141.015625 12.023438 140.902344 11.601562 140.902344 11.101562 C 140.902344 10.183594 141.261719 9.417969 141.984375 8.800781 C 142.714844 8.175781 143.734375 7.863281 145.046875 7.863281 C 146.261719 7.863281 147.230469 8.148438 147.953125 8.714844 C 148.683594 9.277344 149.113281 10.058594 149.253906 11.058594 L 146.746094 11.058594 C 146.589844 10.296875 146.019531 9.914062 145.027344 9.914062 C 144.527344 9.914062 144.140625 10.011719 143.871094 10.207031 C 143.605469 10.402344 143.472656 10.644531 143.472656 10.933594 C 143.472656 11.242188 143.671875 11.484375 144.066406 11.664062 C 144.46875 11.839844 145.003906 12.003906 145.671875 12.152344 C 146.386719 12.320312 147.046875 12.503906 147.652344 12.707031 C 148.253906 12.910156 148.734375 13.207031 149.089844 13.601562 C 149.449219 13.996094 149.628906 14.558594 149.628906 15.289062 C 149.644531 15.929688 149.476562 16.503906 149.128906 17.019531 C 148.789062 17.527344 148.292969 17.925781 147.640625 18.214844 C 146.988281 18.507812 146.21875 18.652344 145.339844 18.652344 Z M 145.339844 18.652344 "/>
<g clip-path="url(#clip1)" clip-rule="nonzero">
<path style=" stroke:none;fill-rule:nonzero;fill:rgb(85.098039%,85.098039%,85.098039%);fill-opacity:1;" d="M 15.375 5.640625 C 15.542969 5.722656 15.6875 5.84375 15.800781 5.988281 L 16.886719 4.933594 C 16.996094 4.988281 17.113281 5.015625 17.246094 5.015625 C 17.285156 5.015625 17.335938 5.007812 17.378906 5.007812 L 18.324219 6.324219 C 18.171875 6.472656 18.082031 6.683594 18.082031 6.914062 C 18.082031 7.371094 18.449219 7.738281 18.910156 7.738281 C 19.117188 7.738281 19.308594 7.664062 19.457031 7.53125 C 20.195312 7.976562 20.8125 8.589844 21.277344 9.3125 C 21.398438 9.5 21.683594 9.464844 21.753906 9.257812 L 21.753906 9.25 C 21.777344 9.175781 21.765625 9.082031 21.722656 9.011719 C 21.214844 8.222656 20.527344 7.550781 19.722656 7.066406 C 19.722656 7.050781 19.730469 7.039062 19.730469 7.019531 L 21.160156 6.871094 C 21.121094 6.753906 21.097656 6.628906 21.097656 6.496094 C 21.097656 6.441406 21.105469 6.378906 21.113281 6.324219 L 19.609375 6.472656 C 19.464844 6.238281 19.199219 6.078125 18.902344 6.078125 C 18.871094 6.078125 18.847656 6.078125 18.824219 6.085938 L 17.855469 4.746094 C 17.898438 4.695312 17.941406 4.644531 17.96875 4.589844 C 19.261719 4.820312 20.480469 5.378906 21.507812 6.21875 C 21.472656 6.308594 21.460938 6.40625 21.460938 6.503906 C 21.460938 6.960938 21.828125 7.332031 22.285156 7.332031 C 22.746094 7.332031 23.113281 6.960938 23.113281 6.503906 C 23.113281 6.042969 22.746094 5.675781 22.285156 5.675781 C 22.128906 5.675781 21.972656 5.722656 21.847656 5.800781 C 20.777344 4.933594 19.484375 4.320312 18.066406 4.0625 C 18.003906 3.667969 17.664062 3.367188 17.246094 3.367188 C 16.785156 3.367188 16.417969 3.734375 16.417969 4.195312 C 16.417969 4.320312 16.445312 4.445312 16.503906 4.550781 Z M 18.910156 6.441406 C 19.164062 6.441406 19.375 6.648438 19.375 6.90625 C 19.375 7.164062 19.164062 7.371094 18.910156 7.371094 C 18.652344 7.371094 18.441406 7.164062 18.441406 6.90625 C 18.441406 6.648438 18.652344 6.441406 18.910156 6.441406 Z M 17.253906 3.722656 C 17.511719 3.722656 17.71875 3.929688 17.71875 4.1875 C 17.71875 4.445312 17.511719 4.652344 17.253906 4.652344 C 16.996094 4.652344 16.785156 4.445312 16.785156 4.1875 C 16.78125 3.929688 16.996094 3.722656 17.253906 3.722656 Z M 17.253906 3.722656 "/>
</g>
<g clip-path="url(#clip2)" clip-rule="nonzero">
<path style=" stroke:none;fill-rule:nonzero;fill:rgb(85.098039%,85.098039%,85.098039%);fill-opacity:1;" d="M 8.222656 11.914062 C 8.214844 12.023438 8.214844 12.144531 8.214844 12.253906 C 8.199219 14.714844 9.261719 16.941406 10.960938 18.484375 C 11.035156 18.316406 11.148438 18.171875 11.285156 18.058594 C 11.277344 18.050781 11.273438 18.046875 11.265625 18.039062 C 9.582031 16.472656 8.679688 14.304688 8.761719 12.003906 C 8.761719 11.980469 8.761719 11.960938 8.761719 11.941406 C 9.105469 11.835938 9.355469 11.523438 9.355469 11.148438 C 9.355469 11.085938 9.347656 11.023438 9.332031 10.964844 L 10.871094 9.972656 C 11.023438 10.140625 11.238281 10.246094 11.480469 10.246094 C 11.941406 10.246094 12.308594 9.875 12.308594 9.417969 C 12.308594 9.238281 12.253906 9.066406 12.15625 8.9375 C 12.699219 8.222656 13.414062 7.644531 14.234375 7.261719 C 14.386719 7.433594 14.609375 7.546875 14.863281 7.546875 C 15.285156 7.546875 15.640625 7.226562 15.683594 6.808594 C 15.980469 6.761719 16.292969 6.730469 16.605469 6.738281 C 16.988281 6.738281 17.355469 6.78125 17.710938 6.855469 C 17.71875 6.667969 17.773438 6.496094 17.863281 6.335938 C 17.417969 6.238281 16.960938 6.191406 16.488281 6.199219 C 16.175781 6.203125 15.863281 6.230469 15.558594 6.28125 C 15.410156 6.042969 15.152344 5.890625 14.855469 5.890625 C 14.617188 5.890625 14.402344 5.988281 14.253906 6.148438 L 12.628906 5.910156 C 12.628906 5.949219 12.636719 5.980469 12.636719 6.015625 C 12.636719 6.167969 12.605469 6.316406 12.550781 6.453125 L 14.035156 6.667969 C 14.035156 6.683594 14.035156 6.707031 14.035156 6.71875 C 14.035156 6.730469 14.035156 6.746094 14.035156 6.753906 C 13.113281 7.175781 12.324219 7.824219 11.71875 8.617188 C 11.699219 8.609375 11.675781 8.605469 11.65625 8.605469 L 11.65625 6.816406 C 12.011719 6.726562 12.273438 6.398438 12.273438 6.015625 C 12.273438 5.933594 12.261719 5.855469 12.238281 5.777344 C 13.378906 5.015625 14.707031 4.570312 16.097656 4.488281 C 16.078125 4.394531 16.066406 4.300781 16.066406 4.195312 C 16.066406 4.113281 16.070312 4.027344 16.089844 3.945312 C 14.574219 4.035156 13.152344 4.542969 11.949219 5.355469 C 11.808594 5.253906 11.636719 5.191406 11.449219 5.191406 C 10.988281 5.191406 10.621094 5.558594 10.621094 6.015625 C 10.621094 6.148438 10.644531 6.265625 10.703125 6.378906 C 9.625 7.449219 8.824219 8.8125 8.449219 10.320312 C 8.027344 10.355469 7.691406 10.710938 7.691406 11.148438 C 7.699219 11.488281 7.914062 11.785156 8.222656 11.914062 Z M 11.480469 8.941406 C 11.738281 8.941406 11.949219 9.152344 11.949219 9.410156 C 11.949219 9.667969 11.738281 9.875 11.480469 9.875 C 11.222656 9.875 11.015625 9.667969 11.015625 9.410156 C 11.015625 9.152344 11.222656 8.941406 11.480469 8.941406 Z M 11.058594 6.738281 C 11.078125 6.746094 11.089844 6.761719 11.113281 6.769531 L 11.113281 8.671875 C 10.839844 8.8125 10.652344 9.089844 10.652344 9.410156 C 10.652344 9.425781 10.652344 9.4375 10.652344 9.449219 L 9.042969 10.496094 C 9.019531 10.472656 8.992188 10.457031 8.972656 10.445312 C 9.3125 9.046875 10.027344 7.761719 11.058594 6.738281 Z M 8.527344 10.667969 C 8.785156 10.667969 8.992188 10.878906 8.992188 11.136719 C 8.992188 11.390625 8.785156 11.597656 8.527344 11.597656 C 8.269531 11.597656 8.058594 11.390625 8.058594 11.136719 C 8.058594 10.878906 8.261719 10.667969 8.527344 10.667969 Z M 8.527344 10.667969 "/>
</g>
<g clip-path="url(#clip3)" clip-rule="nonzero">
<path style=" stroke:none;fill-rule:nonzero;fill:rgb(100%,100%,100%);fill-opacity:1;" d="M 10.5625 14.464844 C 10.542969 14.535156 10.535156 14.605469 10.535156 14.679688 C 10.535156 15.070312 10.800781 15.394531 11.160156 15.488281 L 11.523438 18.324219 C 11.328125 18.476562 11.210938 18.714844 11.210938 18.972656 C 11.210938 19.429688 11.578125 19.800781 12.035156 19.800781 C 12.230469 19.800781 12.40625 19.730469 12.542969 19.625 C 13.742188 20.285156 15.117188 20.660156 16.578125 20.660156 C 17.496094 20.660156 18.378906 20.515625 19.199219 20.242188 C 19.355469 20.402344 19.5625 20.5 19.796875 20.5 C 20.257812 20.5 20.625 20.132812 20.625 19.671875 C 20.625 19.441406 20.535156 19.242188 20.386719 19.089844 L 21.265625 16.886719 C 21.527344 16.78125 21.722656 16.535156 21.773438 16.253906 L 23.457031 15.433594 C 23.339844 15.292969 23.261719 15.125 23.21875 14.945312 L 21.667969 15.703125 C 21.660156 15.695312 21.660156 15.6875 21.652344 15.683594 C 22.167969 14.910156 22.515625 14.011719 22.636719 13.046875 C 22.691406 12.613281 23.058594 12.292969 23.488281 12.292969 C 24.011719 12.292969 24.410156 12.746094 24.347656 13.261719 C 24.316406 13.464844 24.289062 13.664062 24.246094 13.859375 C 23.84375 13.917969 23.539062 14.261719 23.539062 14.679688 C 23.539062 14.925781 23.644531 15.140625 23.808594 15.292969 C 23.421875 16.230469 22.851562 17.085938 22.113281 17.832031 C 21.691406 18.253906 21.222656 18.621094 20.730469 18.933594 C 20.839844 19.074219 20.925781 19.242188 20.957031 19.421875 C 22.449219 18.503906 23.621094 17.136719 24.304688 15.507812 C 24.324219 15.507812 24.347656 15.507812 24.367188 15.507812 C 24.824219 15.507812 25.191406 15.140625 25.191406 14.679688 C 25.191406 14.375 25.027344 14.105469 24.777344 13.957031 C 24.878906 13.433594 24.9375 12.902344 24.941406 12.351562 C 24.964844 9.277344 27.40625 6.746094 30.480469 6.730469 C 33.574219 6.71875 36.089844 9.242188 36.0625 12.34375 C 36.035156 15.394531 33.519531 17.871094 30.472656 17.851562 C 29.066406 17.84375 27.785156 17.316406 26.816406 16.449219 C 26.152344 15.855469 25.109375 16.023438 24.679688 16.800781 C 24.671875 16.808594 24.667969 16.824219 24.667969 16.828125 C 24.347656 17.398438 24.472656 18.113281 24.957031 18.554688 C 26.453125 19.882812 28.425781 20.683594 30.589844 20.660156 C 35.199219 20.621094 38.886719 16.886719 38.878906 12.273438 C 38.871094 7.65625 35.121094 3.925781 30.503906 3.925781 C 25.902344 3.925781 22.167969 7.636719 22.136719 12.230469 C 22.128906 13.371094 21.785156 14.441406 21.203125 15.332031 C 21.125 15.308594 21.035156 15.292969 20.953125 15.292969 C 20.492188 15.292969 20.125 15.660156 20.125 16.121094 C 20.125 16.480469 20.355469 16.785156 20.675781 16.898438 L 19.902344 18.847656 C 19.867188 18.839844 19.839844 18.839844 19.804688 18.839844 C 19.347656 18.839844 18.976562 19.207031 18.976562 19.667969 C 18.976562 19.691406 18.976562 19.722656 18.984375 19.742188 C 18.226562 19.988281 17.433594 20.117188 16.628906 20.117188 C 15.347656 20.125 14.089844 19.820312 12.96875 19.234375 L 15.007812 18.777344 C 14.910156 18.621094 14.847656 18.449219 14.824219 18.261719 L 12.824219 18.714844 C 12.71875 18.386719 12.414062 18.152344 12.050781 18.144531 L 11.78125 16.058594 C 12.621094 17.128906 13.816406 17.90625 15.179688 18.234375 C 15.238281 18.644531 15.582031 18.964844 16.007812 18.964844 C 16.148438 18.964844 16.273438 18.929688 16.382812 18.871094 L 18.613281 19.605469 C 18.628906 19.417969 18.683594 19.234375 18.769531 19.082031 L 16.78125 18.433594 C 16.785156 18.421875 16.785156 18.40625 16.792969 18.394531 C 18.113281 18.34375 19.332031 17.878906 20.304688 17.121094 C 20.144531 17.015625 20.011719 16.878906 19.921875 16.71875 C 19.046875 17.394531 17.960938 17.808594 16.78125 17.851562 C 16.660156 17.53125 16.363281 17.308594 16 17.308594 C 15.703125 17.308594 15.4375 17.46875 15.292969 17.707031 C 13.871094 17.371094 12.664062 16.496094 11.898438 15.308594 C 12.074219 15.152344 12.183594 14.929688 12.183594 14.679688 C 12.183594 14.222656 11.816406 13.855469 11.355469 13.855469 C 11.316406 13.855469 11.277344 13.855469 11.238281 13.859375 C 11.085938 13.347656 11.007812 12.800781 11.015625 12.238281 C 11.023438 11.660156 11.113281 11.105469 11.285156 10.578125 C 11.105469 10.550781 10.933594 10.472656 10.785156 10.371094 C 10.589844 10.953125 10.480469 11.585938 10.472656 12.230469 C 10.464844 12.707031 10.519531 13.171875 10.621094 13.617188 L 9.402344 11.933594 C 9.277344 12.074219 9.125 12.175781 8.957031 12.246094 Z M 20.488281 16.121094 C 20.488281 15.863281 20.695312 15.652344 20.953125 15.652344 C 21.207031 15.652344 21.417969 15.863281 21.417969 16.121094 C 21.417969 16.378906 21.207031 16.585938 20.953125 16.585938 C 20.695312 16.585938 20.488281 16.378906 20.488281 16.121094 Z M 19.804688 19.199219 C 20.0625 19.199219 20.269531 19.410156 20.269531 19.667969 C 20.269531 19.925781 20.0625 20.132812 19.804688 20.132812 C 19.546875 20.132812 19.339844 19.925781 19.339844 19.667969 C 19.339844 19.410156 19.542969 19.199219 19.804688 19.199219 Z M 11.363281 14.214844 C 11.621094 14.214844 11.828125 14.421875 11.828125 14.679688 C 11.828125 14.9375 11.621094 15.144531 11.363281 15.144531 C 11.105469 15.144531 10.898438 14.9375 10.898438 14.679688 C 10.890625 14.421875 11.097656 14.214844 11.363281 14.214844 Z M 11.363281 14.214844 "/>
</g>
</g>
</svg>
