<svg xmlns="http://www.w3.org/2000/svg" xmlns:xlink="http://www.w3.org/1999/xlink" viewBox="0,0,255.98958,255.98958" width="250px" height="250px"><g fill="#084c7e" fill-rule="nonzero" stroke="none" stroke-width="1" stroke-linecap="butt" stroke-linejoin="miter" stroke-miterlimit="10" stroke-dasharray="" stroke-dashoffset="0" font-family="none" font-weight="none" font-size="none" text-anchor="none" style="mix-blend-mode: normal"><g transform="scale(5.12,5.12)"><path d="M24.67188,2c-3.977,0.105 -7.74577,1.04522 -10.88477,2.82422c1.046,-0.419 2.7225,-0.73242 4.1875,-0.73242c0.103,-0.003 0.20464,-0.00391 0.30664,-0.00391c3.958,0 7.48583,1.96981 9.42383,5.13281c2.093,3.349 2.29492,7.4303 2.29492,10.7793c0,7.953 4.29838,10 8.48438,10c4.5,0 8.51563,-4.76858 8.51563,-9.26758c-0.105,-9.733 -12.07212,-18.73242 -22.32812,-18.73242zM25.24023,4.01172c8.789,0.324 19.66677,8.0647 19.75977,16.7207c0,3.6 -3.28863,7.26758 -6.51562,7.26758c-4.424,0 -6.48437,-2.542 -6.48437,-8c0,-3.99 -0.31584,-8.18622 -2.58984,-11.82422c-1.058,-1.727 -2.48892,-3.13706 -4.16992,-4.16406zM15.82422,6c-1.691,0 -3.39822,0.38672 -4.82422,1.13672c-5.652,2.997 -8.923,10.71628 -9,17.86328c-0.041,3.837 0.75661,7.65778 2.47461,10.80078c1.884,3.558 4.50116,6.38209 7.53516,8.37109c-0.733,-0.733 -1.77972,-2.09361 -2.51172,-3.34961c-1.988,-3.558 -1.779,-7.63733 0,-10.98633c1.884,-3.558 5.4782,-5.95539 8.4082,-7.52539c7.011,-3.663 6.80291,-8.79012 5.12891,-12.45313c-1.208,-2.617 -4.18294,-3.85742 -7.21094,-3.85742zM15.82422,8c2.006,0 4.47663,0.70745 5.39063,2.68945c1.87,4.09 0.44605,7.40537 -4.25195,9.85938c-4.518,2.421 -7.53847,5.15066 -9.23047,8.34766c-0.966,1.819 -1.50719,3.77347 -1.61719,5.73047c-1.404,-2.672 -2.15323,-6.07147 -2.11523,-9.60547c0.076,-7.053 3.34064,-13.67928 7.93164,-16.11328c1.113,-0.586 2.49458,-0.9082 3.89258,-0.9082zM47.69336,25.85938c-0.314,1.046 -0.83731,2.61509 -1.57031,3.87109c-1.988,3.453 -5.5455,5.75586 -9.3125,5.75586c-4.081,0 -7.92986,-1.80694 -10.75586,-3.58594c-2.114,-1.331 -4.19689,-1.90039 -6.08789,-1.90039c-3.164,0 -5.78766,1.59567 -7.09766,3.88867c-2.198,3.767 0.00151,9.62669 3.97852,11.92969c2.157,1.266 5.17164,2.18164 7.80664,2.18164c7.595,0 16.17239,-4.75733 19.90039,-11.36133c1.988,-3.349 3.03467,-7.1163 3.13867,-10.7793zM19.9668,32c1.654,0 3.34444,0.53675 5.02344,1.59375c4.103,2.584 8.08031,3.89258 11.82031,3.89258c2.042,0 4.0447,-0.55355 5.8457,-1.56055c-3.413,5.762 -11.08895,10.07422 -18.00195,10.07422c-2.157,0 -4.82269,-0.74711 -6.80469,-1.91211c-1.669,-0.966 -3.04861,-2.86045 -3.59961,-4.93945c-0.429,-1.621 -0.30558,-3.13158 0.35742,-4.26758c1.015,-1.777 3.06837,-2.88086 5.35938,-2.88086z"></path></g></g></svg>